<svg width="32" height="40" viewBox="0 0 32 40" fill="none" xmlns="http://www.w3.org/2000/svg" data-ratio="vertical">
<path d="M15.3608 0C6.95491 0 0.140625 6.81428 0.140625 15.2201V33.6716C0.251622 33.3206 0.389376 32.9631 0.557805 32.598C0.586437 32.5359 0.615091 32.475 0.64377 32.415V15.2201C0.64377 7.09216 7.23279 0.503144 15.3608 0.503144C23.4887 0.503144 30.0777 7.09216 30.0777 15.2201V27.9436C30.2474 27.9705 30.4157 28.0088 30.5809 28.0574V15.2201C30.5809 6.81428 23.7666 0 15.3608 0Z" fill="#90765F"></path>
<path d="M29.6797 27.9018V15.3459C29.6797 7.42636 23.2596 1.00629 15.3401 1.00629C7.42051 1.00629 1.00045 7.42636 1.00045 15.3459V31.7241C1.084 31.5746 1.16784 31.4328 1.25202 31.2981V15.3459C1.25202 7.5653 7.55945 1.25786 15.3401 1.25786C23.1207 1.25786 29.4281 7.5653 29.4281 15.3459V27.898C29.5117 27.8963 29.5957 27.8976 29.6797 27.9018Z" fill="#90765F"></path>
<path d="M29.0567 26.99V27.927C29.0145 27.9327 28.9726 27.9394 28.9309 27.9469V27.3931C28.9675 27.2875 29.0115 27.1455 29.0567 26.99Z" fill="#90765F"></path>
<path d="M28.6164 28.0216V27.8964C28.5766 27.9378 28.5345 27.9778 28.4906 28.0166V28.0624C28.5322 28.0478 28.5741 28.0342 28.6164 28.0216Z" fill="#90765F"></path>
<path d="M28.6164 24.9829C28.5782 25.005 28.5364 25.0298 28.4906 25.0575V14.7799H28.6164V24.9829Z" fill="#90765F"></path>
<path d="M28.9309 24.8255C28.9864 24.8066 29.0233 24.8034 29.0567 24.8066V14.7799H28.9309V24.8255Z" fill="#90765F"></path>
<path d="M28.1156 25.2919L28.1762 25.2533V14.7799H28.0504V25.3338L28.1156 25.2919Z" fill="#90765F"></path>
<path d="M27.7359 25.5399V14.7799H27.6101V25.6246C27.6516 25.5964 27.6941 25.5678 27.7359 25.5399Z" fill="#90765F"></path>
<path d="M27.2957 14.7799V25.8531L27.2865 25.8611L27.2769 25.87C27.2395 25.9057 27.2039 25.9419 27.1699 25.9786V14.7799H27.2957Z" fill="#90765F"></path>
<path d="M27.1699 29.2768V28.9578C27.2082 28.9223 27.2502 28.8869 27.2957 28.8511V29.0757C27.2676 29.1202 27.2384 29.1668 27.2081 29.2153L27.1757 29.2675L27.1699 29.2768Z" fill="#90765F"></path>
<path d="M26.8554 14.7799V26.3974L26.8415 26.4209C26.8303 26.0948 26.8025 25.7674 26.7296 25.4447V14.7799H26.8554Z" fill="#90765F"></path>
<path d="M26.4151 24.6125V14.7799H26.2894V24.4122C26.334 24.4769 26.376 24.5436 26.4151 24.6125Z" fill="#90765F"></path>
<path d="M25.9749 28.1706V27.4845C25.9383 27.452 25.8952 27.4146 25.8491 27.375V27.9515C25.8797 27.9989 25.9097 28.0472 25.939 28.0965L25.9547 28.1264L25.9749 28.1706Z" fill="#90765F"></path>
<path d="M25.9749 24.0283V14.7799H25.8491V23.9034C25.8921 23.9441 25.934 23.9857 25.9749 24.0283Z" fill="#90765F"></path>
<path d="M25.5346 14.7799V23.635C25.4932 23.603 25.4513 23.5715 25.4089 23.5407V14.7799H25.5346Z" fill="#90765F"></path>
<path d="M25.0944 23.3283V14.7799H24.9686V23.2507C25.0107 23.2761 25.0527 23.302 25.0944 23.3283Z" fill="#90765F"></path>
<path d="M24.6541 14.7799V23.0703C24.6122 23.0473 24.5702 23.0247 24.5284 23.0024V14.7799H24.6541Z" fill="#90765F"></path>
<path d="M24.2139 22.8402V14.7799H24.0881V22.7774C24.1297 22.7981 24.1717 22.819 24.2139 22.8402Z" fill="#90765F"></path>
<path d="M23.7736 14.7799V22.6223L23.6479 22.5602V14.7799H23.7736Z" fill="#90765F"></path>
<path d="M23.6479 24.575C23.689 24.6938 23.7317 24.8134 23.7736 24.9275V26.3856C23.732 26.3747 23.6901 26.3645 23.6479 26.3551V24.575Z" fill="#90765F"></path>
<path d="M23.3334 23.5697C23.1816 22.9948 23.2077 22.7884 23.3334 22.6621V14.7799H23.2076V26.2853C23.2498 26.2894 23.2917 26.2942 23.3334 26.2996V23.5697Z" fill="#90765F"></path>
<path d="M22.8931 26.267V14.7799H22.7673V17.5167C22.79 17.5683 22.8061 17.6233 22.8154 17.6819L22.8193 17.7064V17.7312C22.8193 17.8699 22.8019 18.0097 22.7673 18.1502V26.3362C22.7769 26.3289 22.7869 26.322 22.7973 26.3157L22.8779 26.2665L22.8931 26.267Z" fill="#90765F"></path>
<path d="M22.8931 27.2961C22.8467 27.2138 22.8042 27.1333 22.7673 27.0566V30.3882C22.8089 30.3475 22.8508 30.3074 22.8931 30.2681V27.2961Z" fill="#90765F"></path>
<path d="M22.4529 30.7136V18.8555C22.414 18.916 22.3721 18.9764 22.3271 19.0369V30.8519C22.3688 30.8055 22.4107 30.7593 22.4529 30.7136Z" fill="#90765F"></path>
<path d="M22.0126 19.4079V31.2101L21.8868 31.3555V19.5347C21.9301 19.4928 21.9721 19.4505 22.0126 19.4079Z" fill="#90765F"></path>
<path d="M21.5724 31.7142V19.8159C21.5311 19.85 21.4891 19.8836 21.4466 19.9166V31.8529C21.4888 31.807 21.5307 31.7607 21.5724 31.7142Z" fill="#90765F"></path>
<path d="M21.1321 20.1442V32.1795C21.0905 32.2204 21.0486 32.2606 21.0063 32.3001V20.2261C21.0485 20.1995 21.0904 20.1722 21.1321 20.1442Z" fill="#90765F"></path>
<path d="M20.6919 32.579V20.4259C20.6523 20.4514 20.6102 20.4774 20.5661 20.5039V32.6852C20.608 32.6503 20.65 32.6149 20.6919 32.579Z" fill="#90765F"></path>
<path d="M20.2516 20.6858V32.9383C20.2097 32.9708 20.1678 33.0028 20.1258 33.0345V20.7574C20.166 20.7344 20.2043 20.7126 20.2399 20.6923L20.2477 20.688L20.2516 20.6858Z" fill="#90765F"></path>
<path d="M19.8114 33.2628V20.9435C19.7694 20.9693 19.7273 20.9958 19.6856 21.0227V23.3151C19.7001 23.3763 19.7099 23.4319 19.7147 23.4818C19.737 23.7171 19.7263 23.9434 19.6856 24.1515V33.3492C19.7276 33.3208 19.7695 33.292 19.8114 33.2628Z" fill="#90765F"></path>
<path d="M19.3711 24.8619V33.5535C19.3293 33.5795 19.2874 33.6052 19.2453 33.6306V24.9959C19.2902 24.955 19.3321 24.9102 19.3711 24.8619Z" fill="#90765F"></path>
<path d="M18.9309 33.4623V25.1976C18.8914 25.2143 18.8495 25.2292 18.8051 25.2419V33.2387C18.8469 33.3147 18.8884 33.3893 18.9309 33.4623Z" fill="#90765F"></path>
<path d="M18.4906 29.5946V32.6877C18.4507 32.6239 18.409 32.5606 18.3648 32.4979V29.7864C18.4102 29.7252 18.4522 29.6611 18.4906 29.5946Z" fill="#90765F"></path>
<path d="M18.0504 32.117V30.1178C18.0098 30.1511 17.9679 30.1825 17.9246 30.2119V31.9946C17.9672 32.034 18.0092 32.0747 18.0504 32.117Z" fill="#90765F"></path>
<path d="M17.6101 30.3798V31.7311C17.5683 31.6987 17.5263 31.6669 17.4843 31.6356V30.4231C17.4987 30.4194 17.5121 30.4155 17.5245 30.4113C17.5534 30.4016 17.5819 30.3911 17.6101 30.3798Z" fill="#90765F"></path>
<path d="M17.1699 31.4029V30.468C17.131 30.4716 17.0891 30.4751 17.0441 30.4788V31.3065C17.0851 31.3388 17.1271 31.3708 17.1699 31.4029Z" fill="#90765F"></path>
<path d="M16.7296 30.5031V31.0292C16.6853 30.9836 16.6432 30.9365 16.6038 30.8871V30.5137C16.6462 30.5099 16.6887 30.5064 16.7296 30.5031Z" fill="#90765F"></path>
<path d="M7.48433 17.9898V18.8794C7.44353 18.9083 7.40156 18.9375 7.35854 18.967V14.7799H7.48433V15.556C7.34897 16.2494 7.40707 16.9946 7.46422 17.7276C7.47099 17.8145 7.47781 17.902 7.48433 17.9898Z" fill="#90765F"></path>
<path d="M18.4906 27.6825C18.4493 27.6238 18.4065 27.5669 18.3648 27.5119V25.5861C18.4035 25.4942 18.4247 25.3938 18.4181 25.2854C18.4428 25.2865 18.4669 25.2868 18.4906 25.2865V27.6825Z" fill="#90765F"></path>
<path d="M18.3648 16.746C18.4058 16.7759 18.4477 16.8 18.4906 16.8176V14.7799H18.3648V16.746Z" fill="#90765F"></path>
<path d="M18.9296 16.8274L18.9309 16.8274V14.7799H18.8051V16.8317L18.9296 16.8274Z" fill="#90765F"></path>
<path d="M19.3711 16.8146L19.2453 16.8178V14.7799H19.3711V16.8146Z" fill="#90765F"></path>
<path d="M19.6856 16.8087C19.7279 16.8081 19.7698 16.8076 19.8114 16.8073V14.7799H19.6856V16.8087Z" fill="#90765F"></path>
<path d="M20.2516 16.8078C20.2101 16.8073 20.1682 16.8069 20.1258 16.8067V14.7799H20.2516V16.8078Z" fill="#90765F"></path>
<path d="M20.5661 16.8146C20.6086 16.816 20.6505 16.8175 20.6919 16.8193V14.7799H20.5661V16.8146Z" fill="#90765F"></path>
<path d="M21.1321 16.8467C21.0909 16.8431 21.0489 16.8398 21.0063 16.8368V14.7799H21.1321V16.8467Z" fill="#90765F"></path>
<path d="M21.4466 16.8805C21.4894 16.8861 21.5314 16.8921 21.5724 16.8985V14.7799H21.4466V16.8805Z" fill="#90765F"></path>
<path d="M22.0126 16.9922C21.9721 16.9807 21.9302 16.9698 21.8868 16.9594V14.7799H22.0126V16.9922Z" fill="#90765F"></path>
<path d="M22.4529 17.1763C22.4139 17.1522 22.3719 17.1295 22.3271 17.1081V14.7799H22.4529V17.1763Z" fill="#90765F"></path>
<path d="M19.3711 21.2441C19.3258 21.2798 19.2835 21.3155 19.2453 21.3508V22.1317L19.2795 22.214C19.3113 22.2906 19.3419 22.3644 19.3711 22.4357V21.2441Z" fill="#90765F"></path>
<path d="M18.0504 14.7799V16.3909C18.0078 16.3261 17.9659 16.2559 17.9246 16.1814V14.7799H18.0504Z" fill="#90765F"></path>
<path d="M17.6101 15.5286V14.7799H17.4843V15.2367C17.5264 15.3354 17.5682 15.4331 17.6101 15.5286Z" fill="#90765F"></path>
<path d="M7.04408 14.7799V19.1767C7.00272 19.2037 6.96076 19.2309 6.91829 19.2583V14.7799H7.04408Z" fill="#90765F"></path>
<path d="M6.60383 19.4591V14.7799H6.47804V19.5389L6.60383 19.4591Z" fill="#90765F"></path>
<path d="M6.16357 14.7799V19.7389L6.03779 19.8196V14.7799H6.16357Z" fill="#90765F"></path>
<path d="M5.72332 20.0245V14.7799H5.59754V20.1082C5.63933 20.0802 5.68127 20.0523 5.72332 20.0245Z" fill="#90765F"></path>
<path d="M5.28307 14.7799V20.324C5.24084 20.3537 5.19889 20.3835 5.15729 20.4135V14.7799H5.28307Z" fill="#90765F"></path>
<path d="M4.84282 20.6482V14.7799H4.71703V20.7476C4.75838 20.7143 4.80033 20.6812 4.84282 20.6482Z" fill="#90765F"></path>
<path d="M4.40257 14.7799V21.0156C4.35961 21.0545 4.31765 21.0937 4.27678 21.133V14.7799H4.40257Z" fill="#90765F"></path>
<path d="M3.96232 21.4679V14.7799H3.83653V21.6278C3.87603 21.5741 3.91803 21.5208 3.96232 21.4679Z" fill="#90765F"></path>
<path d="M3.96232 23.5503C3.91808 23.5277 3.8761 23.503 3.83653 23.4762V28.7729C3.87829 28.7465 3.92022 28.7202 3.96232 28.694V23.5503Z" fill="#90765F"></path>
<path d="M3.52206 22.2076C3.49037 22.2998 3.46723 22.3931 3.45353 22.4876C3.40503 22.7587 3.44876 22.9659 3.52206 23.1188V28.9767C3.47998 29.0047 3.43805 29.033 3.39628 29.0617V14.7799H3.52206V22.2076Z" fill="#90765F"></path>
<path d="M3.08181 14.7799V29.2866C3.03974 29.3181 2.99781 29.3501 2.95603 29.3826V14.7799H3.08181Z" fill="#90765F"></path>
<path d="M2.64156 29.6418V14.7799H2.51578V29.7544C2.55757 29.716 2.5995 29.6785 2.64156 29.6418Z" fill="#90765F"></path>
<path d="M2.20131 14.7799V30.0624C2.15926 30.1064 2.11733 30.1514 2.07552 30.1976V14.7799H2.20131Z" fill="#90765F"></path>
<path d="M1.76106 30.5705V14.7799H1.63527V30.735C1.6771 30.6787 1.71903 30.6239 1.76106 30.5705Z" fill="#90765F"></path>
<path d="M4.27678 23.6694V28.5L4.40257 28.4229V23.7C4.35954 23.6908 4.31759 23.6806 4.27678 23.6694Z" fill="#90765F"></path>
<path d="M4.71703 28.2289C4.75882 28.2029 4.80074 28.1767 4.84282 28.1502V23.7619C4.80022 23.7584 4.75828 23.7545 4.71703 23.7499V28.2289Z" fill="#90765F"></path>
<path d="M5.15729 27.9486V23.7775C5.19876 23.7785 5.2407 23.7791 5.28307 23.7794V27.8654C5.24094 27.8935 5.19902 27.9212 5.15729 27.9486Z" fill="#90765F"></path>
<path d="M5.59754 23.7757V27.6498C5.63923 27.6204 5.68115 27.5905 5.72332 27.5601V23.7717C5.6811 23.7732 5.63916 23.7746 5.59754 23.7757Z" fill="#90765F"></path>
<path d="M6.03779 27.3258V23.7569C6.07952 23.7546 6.12146 23.7522 6.16357 23.7496V27.228C6.12138 27.2612 6.07945 27.2938 6.03779 27.3258Z" fill="#90765F"></path>
<path d="M6.47804 23.7293V26.9721C6.50904 26.946 6.5402 26.9196 6.57152 26.8929C6.58218 26.8837 6.59296 26.8741 6.60383 26.8641V23.7207L6.47804 23.7293Z" fill="#90765F"></path>
<path d="M6.91829 26.5005V23.699L7.04408 23.6906V26.3258C7.00175 26.3866 6.95974 26.4451 6.91829 26.5005Z" fill="#90765F"></path>
<path d="M7.35854 23.6716V25.848C7.40075 25.7811 7.44275 25.7139 7.48433 25.6469V23.6653C7.44282 23.6672 7.40087 23.6693 7.35854 23.6716Z" fill="#90765F"></path>
<path d="M7.79879 25.1395V23.6548C7.84138 23.654 7.88333 23.6535 7.92458 23.6534V24.9414C7.88458 25.0034 7.84275 25.0694 7.79879 25.1395Z" fill="#90765F"></path>
<path d="M8.23905 23.6609V24.4945C8.28255 24.441 8.32422 24.3945 8.36483 24.3549V23.67L8.35642 23.6693C8.31832 23.6659 8.27917 23.6631 8.23905 23.6609Z" fill="#90765F"></path>
<path d="M8.6793 24.1692V23.7206C8.72767 23.7331 8.7698 23.7472 8.80508 23.7626V24.1424C8.76534 24.1491 8.72285 24.1572 8.6793 24.1692Z" fill="#90765F"></path>
<path d="M0.140625 37.9346C-0.124335 36.187 -0.069141 34.5738 0.78194 32.729C1.91194 30.2796 3.03722 29.59 4.43534 28.7332C5.11898 28.3143 5.86792 27.8553 6.71446 27.1311C7.0571 26.838 7.45785 26.1886 7.8171 25.6065C8.13282 25.0948 8.41666 24.6349 8.60068 24.5147C8.66478 24.4728 8.74874 24.4592 8.83355 24.4455C9.05701 24.4095 9.28722 24.3724 9.17873 23.8149C9.06484 23.2296 7.86433 23.3129 6.61467 23.3997C5.09593 23.5053 3.50446 23.6158 3.70251 22.5371C3.84181 21.5441 5.32566 20.6027 6.59612 19.7967C7.03807 19.5163 7.45458 19.2521 7.77924 19.0081C7.78433 18.576 7.75012 18.1371 7.71622 17.7025C7.60194 16.2368 7.49139 14.8188 8.9049 13.8665C10.278 12.9414 13.2668 11.8743 14.8679 12.4062C16.0437 12.7968 16.6015 14.1084 17.0897 15.2561C17.4911 16.2002 17.8455 17.0334 18.4578 17.1522C18.5527 17.1522 18.6985 17.1472 18.8791 17.1409H18.8814C19.9732 17.1033 22.3311 17.0221 22.4433 17.7303C22.4433 18.7009 21.3631 19.6331 20.5874 20.0729C20.4549 20.1726 20.2535 20.2871 20.0302 20.4141L20.0293 20.4146C19.4435 20.7476 18.7075 21.166 18.6707 21.6244C18.6646 21.7012 18.7864 21.9944 18.9278 22.3346L18.9285 22.3362C19.1073 22.7665 19.3174 23.2717 19.3401 23.5107C19.4145 24.2951 19.0599 25.1446 18.1536 24.9405C18.1401 24.9375 18.1287 24.9316 18.1191 24.9238C18.101 25.0409 18.0574 25.1344 18.0189 25.1944C18.1395 25.5265 17.7462 25.7944 17.5538 25.9254C17.4949 25.9655 17.4545 25.993 17.454 26.0053C17.4537 26.013 17.488 26.0414 17.5339 26.0792C17.6157 26.1467 17.7344 26.2446 17.7582 26.3095C17.818 26.4727 17.8054 26.6731 17.7933 26.8654C17.782 27.0439 17.7712 27.2154 17.819 27.3439C17.8543 27.4389 17.9439 27.5573 18.041 27.6856C18.18 27.8691 18.3345 28.0732 18.3666 28.2566C18.4987 29.011 18.0918 29.867 17.3626 30.1125C17.2802 30.1402 17.0497 30.1578 16.7973 30.177C16.4015 30.207 15.9513 30.2412 15.9328 30.3255C16.0972 31.0495 16.5853 31.4085 17.0868 31.7774L17.0881 31.7783C17.3417 31.9649 17.5987 32.154 17.819 32.3942C18.0762 32.6747 18.2519 32.9953 18.4268 33.3143C18.5815 33.5962 18.7357 33.8776 18.9446 34.1284C19.719 33.7099 20.42 33.1949 21.0743 32.6072C21.449 32.2707 21.7856 31.8815 22.118 31.4971L22.1191 31.4958C23.1163 30.3428 24.0757 29.2333 25.9116 29.717C25.8399 29.0365 25.4255 28.9303 24.9377 28.8053C24.5984 28.7183 24.2236 28.6222 23.9036 28.3175C23.7759 28.1959 22.7305 26.6866 22.8997 26.5834C24.0923 26.6257 25.0083 27.2505 25.6073 28.2566L26.2767 29.717C26.2816 29.6075 26.2927 29.4601 26.3054 29.2916C26.3526 28.664 26.4219 27.744 26.2767 27.4048C26.2578 27.3608 26.0631 27.1951 25.7998 26.9711L25.7985 26.97C25.2809 26.5297 24.4998 25.8653 24.2687 25.4577C24.1107 25.1788 23.3304 23.0078 23.5082 22.8717C23.5657 22.9002 23.6241 22.929 23.6831 22.958C24.6081 23.413 25.6936 23.9471 26.155 24.9101C26.467 25.5612 26.4705 26.2739 26.474 26.9889C26.4761 27.4253 26.4782 27.8626 26.5505 28.2871C26.5714 28.186 26.5909 28.0859 26.6102 27.9869L26.6106 27.9845C26.7476 27.28 26.8737 26.6314 27.4328 26.0966C27.5621 25.9729 28.8948 25.1038 28.9843 25.1231C29.2115 25.1719 28.6222 27.2199 28.528 27.4048C28.3579 27.7387 27.9706 27.9851 27.5814 28.2327C26.9886 28.6099 26.3913 28.9899 26.5505 29.6866C26.6666 29.54 26.8828 29.6377 27.0271 29.703C27.0884 29.7307 27.1368 29.7526 27.159 29.7473C27.1892 29.7403 27.2907 29.5776 27.413 29.3817L27.4135 29.3808C27.5747 29.1225 27.7718 28.8067 27.8892 28.713C29.0404 27.794 30.9596 28.2393 31.9355 29.2302C31.5369 29.259 31.1508 29.3978 30.7689 29.5353C30.4568 29.6475 30.1474 29.7588 29.8363 29.8082C29.6788 29.8332 29.3694 29.8292 29.0157 29.8247C28.2438 29.8148 27.261 29.8023 27.1894 30.0821C27.1179 30.5095 27.5233 30.7421 27.8855 30.9499C28.145 31.0987 28.3825 31.2348 28.4063 31.4206C28.4189 31.5182 28.3417 31.6875 28.271 31.8426C28.2122 31.9713 28.1578 32.0905 28.1629 32.1509C28.1639 32.1621 28.1949 32.2154 28.2367 32.2874L28.2384 32.2904C28.3231 32.436 28.4507 32.6556 28.4672 32.7593C28.616 33.6973 27.9924 34.1145 27.3533 34.5422L27.3514 34.5435C27.2563 34.6071 27.1609 34.671 27.0677 34.7368C26.9825 34.797 26.8956 34.8859 26.8041 34.9796C26.6238 35.1642 26.4251 35.3677 26.1854 35.4061C25.9501 35.4439 25.7397 35.3534 25.5504 35.2719C25.4054 35.2095 25.2727 35.1525 25.1511 35.1628C24.9889 35.1763 22.6885 37.0509 22.6259 37.2011C22.5595 37.3605 22.5499 37.6052 22.5403 37.8518C22.5301 38.1112 22.5199 38.3733 22.4434 38.5397C22.4151 38.6013 21.9975 39.0413 21.5469 39.4969H30.0777V30.0956C30.2481 30.0605 30.4158 30.0112 30.5809 29.9565V40H0.140625V37.9346Z" fill="#90765F"></path>
<path d="M29.4281 30.1432C29.5196 30.1434 29.6037 30.1427 29.6797 30.1404V38.9937H22.5307C22.6512 38.8625 22.7133 38.7877 22.7472 38.7421H22.7673V38.7135C22.7807 38.6932 22.7861 38.6814 22.7906 38.6718C22.8479 38.547 22.8768 38.3993 22.8931 38.243V38.7421H23.2076V37.1302C23.2464 37.096 23.2885 37.0594 23.3334 37.0209V38.7421H23.6479V36.7552C23.6889 36.721 23.731 36.6862 23.7736 36.6509V38.7421H24.0881V36.3938L24.2139 36.2923V38.7421H24.5284V36.0417C24.5711 36.008 24.6131 35.975 24.6541 35.9429V38.7421H24.9686V35.7013C25.0137 35.6674 25.0559 35.6361 25.0944 35.608V38.7421H25.4089V35.5281C25.436 35.5393 25.463 35.5509 25.4875 35.5615L25.5346 35.5817V38.7421H25.8491V35.6926C25.8897 35.7029 25.9317 35.7115 25.9749 35.7179V38.7421H26.2894V35.7185L26.2967 35.7174C26.3375 35.7108 26.3769 35.7014 26.4151 35.6896V38.7421H26.7296V35.5277C26.7734 35.4962 26.8153 35.4624 26.8554 35.4276V38.7421H27.1699V35.1195C27.2153 35.0742 27.258 35.0341 27.2957 35.0053V38.7421H27.6101V34.7905C27.6515 34.7628 27.6936 34.7346 27.7359 34.7058V38.7421H28.0504V34.4796C28.0929 34.4466 28.1349 34.4126 28.1762 34.3776V38.7421H28.4906V34.0619C28.5356 34.007 28.5778 33.9495 28.6164 33.8892V38.7421H28.9309V30.1381L29.0567 30.1396V38.7421H29.4281V30.1432Z" fill="#90765F"></path>
<path d="M23.2076 29.9969V27.8029C23.25 27.8664 23.2922 27.9283 23.3334 27.9875V29.9009C23.291 29.932 23.249 29.9641 23.2076 29.9969Z" fill="#90765F"></path>
<path d="M23.6479 29.6929C23.6893 29.6685 23.7312 29.645 23.7736 29.6225V28.5697C23.7651 28.5619 23.7567 28.554 23.7482 28.546C23.7399 28.5381 23.7032 28.4927 23.6479 28.4202V29.6929Z" fill="#90765F"></path>
<path d="M24.2139 29.4319C24.1714 29.4463 24.1295 29.4616 24.0881 29.4777V28.802C24.1299 28.8266 24.1719 28.8493 24.2139 28.8702V29.4319Z" fill="#90765F"></path>
<path d="M24.5284 29.346C24.5698 29.3372 24.6117 29.3294 24.6541 29.3225V29.0386C24.6127 29.0264 24.5708 29.0133 24.5284 28.999V29.346Z" fill="#90765F"></path>
<path d="M25.0944 29.2853C25.052 29.2857 25.0101 29.287 24.9686 29.2891V29.123C25.0132 29.1345 25.055 29.1457 25.0944 29.1568V29.2853Z" fill="#90765F"></path>
<path d="M25.5346 27.1066V27.5238C25.4935 27.4747 25.4516 27.427 25.4089 27.3808V26.9987C25.4505 27.0345 25.4924 27.0705 25.5346 27.1066Z" fill="#90765F"></path>
<path d="M25.0944 27.078V26.7245C25.0518 26.6867 25.0098 26.6492 24.9686 26.612V26.9757C25.0111 27.0087 25.0531 27.0428 25.0944 27.078Z" fill="#90765F"></path>
<path d="M24.6541 26.3184V26.759C24.6127 26.7338 24.5708 26.7095 24.5284 26.6862V26.1936C24.5687 26.2346 24.6107 26.2762 24.6541 26.3184Z" fill="#90765F"></path>
<path d="M24.2139 26.5346V25.8425C24.1657 25.7814 24.1235 25.7224 24.0881 25.666V26.485C24.1304 26.5007 24.1724 26.5172 24.2139 26.5346Z" fill="#90765F"></path>
<path d="M25.4481 29.3019C25.4357 29.2932 25.4226 29.2848 25.4089 29.2768V29.2982L25.4481 29.3019Z" fill="#90765F"></path>
<path d="M27.6101 30.3204C27.6395 30.3605 27.6813 30.4007 27.7359 30.4434V30.1787C27.6886 30.1856 27.6462 30.1935 27.6101 30.2026V30.3204Z" fill="#90765F"></path>
<path d="M28.0504 30.6471V30.15C28.0914 30.1478 28.1334 30.1459 28.1762 30.1443V30.7196L28.1035 30.6778L28.0504 30.6471Z" fill="#90765F"></path>
<path d="M28.4906 30.1372V30.9255C28.5364 30.962 28.5789 31.0006 28.6164 31.0422V30.1365C28.575 30.1366 28.5329 30.1368 28.4906 30.1372Z" fill="#90765F"></path>
<path d="M28.6153 31.9809L28.6164 31.9784V32.2105L28.5762 32.1409L28.571 32.1319L28.5684 32.1275L28.5612 32.115L28.5582 32.1099C28.5748 32.0698 28.5973 32.0204 28.6153 31.9809Z" fill="#90765F"></path>
<path d="M16.5169 22.213L16.4502 22.1418C16.4727 22.1688 16.4949 22.192 16.5169 22.213Z" fill="#90765F"></path>
<path d="M15.9329 25.2448L15.8112 25.336C15.8274 25.2832 15.9363 25.2516 15.9329 25.2448Z" fill="#FFEDDD"></path>
<path d="M18.4882 22.2326L17.7581 22.5369L18.3361 21.9588L17.2409 22.8106V21.9588C17.0425 22.2831 16.8 22.4839 16.5166 22.2125L16.9063 22.6281C16.5114 22.7673 16.2457 22.6851 15.9631 22.5064C15.9574 22.5028 15.8881 22.6111 15.8414 22.5673C15.6712 22.4076 15.5908 22.104 15.7197 21.898C15.3959 21.999 15.0588 22.1515 14.7157 22.0501C15.5996 21.7753 16.528 21.1907 17.4842 21.4113C17.5805 21.347 17.5942 21.283 17.4842 21.2287C17.134 21.0557 15.913 21.514 15.8718 21.4416C15.8679 21.4349 16.1517 21.3442 15.9022 21.2895C15.4439 21.671 14.9089 21.3591 14.4115 21.1982L15.3242 21.3199C15.1261 21.0302 14.7071 21.2087 14.5636 20.8636C14.4493 20.9863 13.7195 21.978 13.6509 21.9588C13.5487 21.9301 13.7443 21.7699 13.6509 21.7154C13.6388 21.7084 13.4973 21.9398 13.4988 21.7458C13.8452 21.203 14.3141 20.864 14.4419 20.1943C14.3281 20.1333 12.0394 20.7731 11.9472 20.8636C11.7974 21.0106 12.037 21.204 11.8255 21.3504C11.7515 21.2402 11.4875 21.1264 11.3691 21.2591C11.4191 21.5492 11.5584 21.2569 11.6125 21.32C11.7905 21.5275 11.5452 21.6649 11.5517 21.6851C11.5714 21.7466 11.7169 21.6992 11.7342 21.7155C11.7637 21.6428 11.7748 21.4102 11.9168 21.4417C12.0032 21.7012 11.7696 22.5479 11.7951 22.6586C11.8191 22.7631 12.2118 22.9302 12.221 23.0845C12.2257 23.1645 12.0001 23.9368 12.0385 24.1189C12.0461 24.1553 12.4484 24.5513 12.4644 24.7274C12.4998 25.1184 11.952 26.0843 12.1602 26.6136L12.4035 25.5792C12.363 26.1011 12.1769 26.7387 12.6165 27.1308C12.6449 27.1561 13.0029 27.205 13.0729 27.3438C13.1251 27.4474 13.0282 28.2076 13.2858 28.4086C13.4529 28.2111 13.1317 27.5269 13.438 27.4655C13.4792 28.0436 13.2173 28.5527 13.9247 28.7433L11.2475 28.3174C11.4111 28.4162 11.6432 28.4902 11.8256 28.5303C12.4354 28.6643 13.8772 28.7274 14.3811 28.9562C14.4891 29.0053 14.8563 29.9297 14.7157 29.0171C14.4445 28.723 14.1259 28.288 14.1377 27.861C14.3047 28.2545 14.6486 28.5809 14.7157 29.0171C14.7158 29.0172 14.7157 29.017 14.7157 29.0171C14.8635 29.1773 15.1912 29.3917 15.3546 29.5647L15.1721 28.9562C15.3749 29.3326 15.7349 29.5479 16.1456 29.6255H15.2938L14.9591 29.4126C15.0506 29.8031 15.4739 29.6959 15.6589 29.7472C16.0363 29.8519 16.8837 30.0116 17.3017 29.808C17.52 29.7018 17.5152 29.4033 17.5453 29.3823C17.5832 29.3558 17.9429 29.6496 17.9408 28.8651C17.4583 28.1397 17.2767 27.0495 16.7543 26.5225L16.6022 26.6138C16.6015 26.5282 16.559 26.0302 16.5413 26.0053C16.4761 25.913 16.289 26.149 16.2979 25.9444C16.3081 25.7148 17.0837 25.7267 17.0585 25.3055L17.1193 25.5489L17.3018 25.3664C17.3248 25.8984 17.8307 25.4001 18.0016 25.1535C18.0022 25.1548 18.0027 25.1562 18.0033 25.1575C18.1044 24.8679 18.032 24.6971 18.032 24.6971C17.9291 24.6482 17.9925 24.8451 17.7886 24.8188C17.5989 24.7943 17.4071 24.6723 17.1802 24.6971C17.1124 24.7045 16.0107 25.1824 15.9329 25.2448C15.8864 25.1512 15.9157 25.0547 15.7807 25.1838C15.6651 25.4231 15.5188 25.9073 15.5068 26.1878C15.4857 26.6818 15.5791 27.6445 15.811 28.074L16.2369 28.4999C15.6391 28.4121 15.5007 27.666 15.4459 27.1613C15.4105 26.8347 15.5395 25.4212 15.5068 25.3359C15.4975 25.3117 15.1466 25.1063 15.1113 25.0013L15.0505 25.4272C14.8146 24.8706 14.4581 23.8465 14.2595 25.123C14.2 24.9918 14.2788 24.6486 14.0465 24.8491C14.2425 24.3438 13.8124 24.5339 13.7423 24.3623C13.7317 24.3363 14.0143 23.8918 13.5598 24.1189C13.7025 23.9503 13.9256 23.3151 13.6206 23.4496L13.7423 22.8411L14.2595 23.0541L13.8639 22.6585L14.3507 22.7194L13.9248 22.4152C14.6936 22.6145 14.1896 22.4094 13.864 22.1718L14.4116 22.2326L13.9248 21.9892C14.2462 22.0417 14.5964 22.1745 14.1986 21.8371C14.6778 21.7673 14.5405 22.0825 14.8375 22.2326L14.5941 22.3543L15.1417 22.476L14.5332 22.5977L15.3242 22.7802L14.5332 22.8411L15.7502 23.0845C15.4616 23.277 14.717 22.804 14.5637 23.115L16.1761 23.3888L14.5637 23.2367C14.7522 23.484 15.842 23.6106 16.2065 23.6018C16.5593 23.5932 16.9649 23.5395 17.2105 23.2671C17.2445 24.6662 15.014 24.0465 14.1377 23.9669L14.3811 24.1494C14.9911 24.193 15.6552 24.335 16.2673 24.2711C16.921 24.2028 17.252 23.7912 17.9102 23.7843L18.0623 23.8755C17.7344 23.9094 17.5931 24.0245 17.2713 24.1797L17.8493 24.271H17.18C17.3259 24.3972 18.5378 24.5165 18.762 24.4535C19.5467 24.2334 18.6917 22.7107 18.4882 22.2326ZM12.1908 22.7501C12.1222 22.3439 12.1438 21.9099 12.3125 21.5331L12.1908 22.7501ZM12.8602 21.168L12.7385 22.4458L12.6473 21.8069L12.8602 21.168ZM12.8602 22.6892C12.77 23.2708 12.5527 23.7906 12.6777 24.3929C12.3269 24.2213 12.7538 22.6617 12.8602 22.6892ZM12.6776 26.8876C12.3271 26.4174 12.5434 25.6862 12.7385 25.1839C12.7105 25.7851 12.4802 26.2776 12.6776 26.8876ZM12.8602 26.7659C12.7592 26.3293 12.7858 25.8276 13.0427 25.4273L12.8602 26.7659ZM13.2253 24.3321L13.0732 23.6932L13.2253 22.6284V24.3321ZM15.8112 25.336C15.8247 25.2921 15.9012 25.2632 15.9251 25.2506L15.8112 25.336ZM16.8761 28.0437C17.2311 28.2518 17.4175 28.6522 17.6671 28.9564C17.3084 28.7531 17.0881 28.3804 16.8761 28.0437ZM16.5718 27.1919L17.1194 27.8004C16.8995 27.8773 16.5073 27.2217 16.5718 27.1919ZM17.1499 29.2911C16.9164 29.3484 16.3722 28.9952 16.4502 28.713L17.1499 29.2911ZM16.2676 25.1839L16.0242 26.2183C15.9734 25.8487 16.1148 25.5113 16.2676 25.1839ZM15.9633 26.8876C16.0062 27.4206 16.26 27.7823 16.5109 28.2262C16.0622 27.9918 15.8644 27.3504 15.9633 26.8876ZM15.2332 28.1654C15.5233 28.8471 16.133 29.0974 16.663 29.5345C16.571 29.7186 14.9866 28.6164 15.2332 28.1654ZM14.6856 25.9141C14.8175 26.5601 14.7913 27.205 14.8986 27.8612C14.79 27.5741 14.6929 27.353 14.6552 27.0397L14.6856 25.9141ZM13.6512 28.4696C13.5227 28.1679 13.5361 27.8148 13.5903 27.4961C13.7338 27.726 13.7222 28.215 13.6512 28.4696ZM14.0771 25.9141L14.4422 27.8612C14.2764 27.9146 13.9284 26.1041 14.0771 25.9141ZM14.0163 28.5913C13.8673 28.6624 13.7098 27.6902 13.7729 27.5569L14.0163 28.5913ZM13.7729 27.1918C13.4542 26.5909 13.1024 25.9617 13.4686 25.3056L13.7729 27.1918ZM14.5639 21.4114C14.6776 21.3884 15.3054 21.6613 15.5071 21.6244C15.3686 21.7203 14.4865 21.5535 14.4727 21.5027C14.505 21.4823 14.5413 21.416 14.5639 21.4114ZM14.1988 21.594L15.0811 21.7461C14.9535 21.904 14.2791 21.8096 14.1988 21.594ZM18.2451 23.2672L18.5798 23.0543C18.7476 23.1223 18.3051 23.3992 18.2451 23.2672ZM18.3973 22.3241C18.4367 22.5077 18.1124 22.5442 18.4885 22.5371L18.093 22.8109C17.796 22.5531 18.1914 22.5074 18.3973 22.3241ZM18.1234 23.1456L18.4581 22.8718C18.7174 22.9326 18.1401 23.2179 18.1234 23.1456ZM18.7622 24.3321C18.69 24.2772 18.7595 24.1005 18.7318 24.0582C18.7234 24.0455 18.4918 23.8905 18.4884 23.8757C18.4399 23.6663 18.8622 23.6818 18.245 23.5715L18.5796 23.2977C18.6726 23.2924 19.1426 24.2396 18.7622 24.3321Z" fill="#FFEDDD"></path>
<path d="M17.5453 26.34L17.9104 28.5305C17.83 28.3146 17.1483 27.0653 17.1498 26.9789C17.153 26.8024 17.4565 26.5175 17.5453 26.34Z" fill="#FFEDDD"></path>
<path d="M14.138 24.1496L16.9065 24.3017C16.3629 24.4435 15.7925 24.5268 15.2332 24.393C15.5015 24.6395 16.0698 24.5367 16.3893 24.5147C16.2576 24.7116 15.4305 24.9648 15.8417 24.6364C15.3176 24.5627 14.5381 24.4802 14.138 24.1496Z" fill="#FFEDDD"></path>
<path d="M9.33104 25.9141C9.80261 25.9855 10.267 26.1093 10.7305 26.2183C11.1339 26.3132 11.7147 26.3645 12.0387 26.6138C11.1741 26.3862 10.1009 26.4197 9.33104 25.9141Z" fill="#FFEDDD"></path>
<path d="M13.9554 23.6019C14.9221 23.9809 15.9549 23.9055 16.9673 23.8757L16.4501 24.0279C15.6958 23.9684 14.5224 24.1684 13.9554 23.6019Z" fill="#FFEDDD"></path>
<path d="M10.183 27.1919L12.9515 27.8307L10.6697 27.4961L10.183 27.1919Z" fill="#FFEDDD"></path>
<path d="M14.6247 23.5411L17.089 23.6323C16.473 23.8577 15.5013 23.8646 14.8681 23.7236C14.8244 23.7138 14.5108 23.6494 14.6247 23.5411Z" fill="#FFEDDD"></path>
<path d="M10.548 27.5569L13.0122 28.0741C12.4394 28.1076 11.4758 27.9584 10.913 27.8003C10.7944 27.7669 10.5446 27.7225 10.548 27.5569Z" fill="#FFEDDD"></path>
<path d="M10.7914 27.8612L13.1949 28.4392C12.4493 28.2802 11.3399 28.3259 10.7914 27.8612Z" fill="#FFEDDD"></path>
<path d="M11.7919 28.8978L14.2327 29.2888C13.4771 29.1878 12.3746 29.3189 11.7919 28.8978Z" fill="#FFEDDD"></path>
<path d="M12.1871 29.239L14.2416 29.4741C13.6077 29.4212 12.712 29.6207 12.1871 29.239Z" fill="#FFEDDD"></path>
<path d="M14.3618 30.1965C13.891 30.2051 13.4013 30.2101 13.0039 30.105C13.0824 30.1997 13.1653 30.2916 13.252 30.3802L14.3457 30.4163L14.3618 30.1965Z" fill="#FFEDDD"></path>
<path d="M14.3374 30.5297C14.0324 30.5824 13.685 30.5329 13.3458 30.4732C13.4446 30.5684 13.5476 30.6594 13.6542 30.7454L14.32 30.7674L14.3374 30.5297Z" fill="#FFEDDD"></path>
<path d="M14.31 30.9036C14.1581 30.9142 13.9984 30.9048 13.8363 30.8854C13.983 30.9925 14.1349 31.0902 14.29 31.1773L14.31 30.9036Z" fill="#FFEDDD"></path>
<path d="M14.3565 30.0277C14.3674 29.9909 14.3419 29.9533 14.3037 29.9499L12.7385 29.8089C12.8357 29.9561 13.0029 30.0387 13.1792 30.0432L14.2966 30.0713C14.3241 30.0719 14.3486 30.0541 14.3565 30.0277Z" fill="#FFEDDD"></path>
<path d="M16.9369 21.6548C16.7794 21.7842 16.7338 21.8751 16.7544 22.0808C15.4968 22.1019 16.0716 21.8019 16.9369 21.6548Z" fill="#FFEDDD"></path>
<path d="M18.0322 28.1045C18.1805 28.205 18.2029 28.9291 18.093 28.9564C17.8883 28.7462 18.0137 28.3862 18.0322 28.1045Z" fill="#FFEDDD"></path>
<path fill-rule="evenodd" clip-rule="evenodd" d="M13.3469 37.9616L11.9446 35.5764C12.3447 36.2852 12.7078 36.9997 12.9513 37.6878C12.9562 37.7016 12.9626 37.7179 12.9697 37.736C13.0132 37.8467 13.083 38.0239 12.9818 38.0833L10.0612 32.7897L12.3733 37.5965L9.45266 32.5463L11.8257 37.0489L9.3614 33.0634C7.98977 31.517 6.02436 30.3535 3.91977 30.3253H4.98046L3.55058 29.9907C4.17178 29.9078 4.72939 30.0797 5.30367 30.2567C5.37813 30.2797 5.45291 30.3028 5.52807 30.3253C5.22398 30.0528 4.84568 29.9678 4.46637 29.8826C4.23719 29.8311 4.00763 29.7795 3.79385 29.6865L5.77134 30.1428L4.09807 29.4431L6.01474 29.9602C6.06285 29.8255 4.59172 29.2647 4.40228 29.3214C4.45348 29.1119 5.06209 29.348 5.55687 29.54C5.8926 29.6702 6.17593 29.7802 6.19725 29.7168L4.7065 29.0171C5.15316 29.0516 5.55279 29.2355 5.95146 29.419C6.13348 29.5029 6.31536 29.5866 6.50146 29.656C6.5592 29.5292 6.15021 29.3487 5.75505 29.1743C5.41266 29.0233 5.08065 28.8767 5.07159 28.7737L6.7753 29.443C6.52624 29.1318 6.15411 28.9913 5.78794 28.853C5.66889 28.808 5.54996 28.7631 5.43662 28.7128L5.49744 28.5911L7.32285 29.4429C7.29813 29.3012 7.08373 29.1605 6.96624 29.0834L6.95775 29.0778C6.80499 28.9775 6.61442 28.8989 6.42084 28.8191C6.14744 28.7064 5.86794 28.5911 5.67996 28.4085L7.62706 29.3821C7.44335 28.9858 7.05599 28.79 6.67191 28.596C6.42247 28.4699 6.17442 28.3445 5.98455 28.1654C7.98587 28.8848 9.37738 30.328 10.8006 31.8043C11.0786 32.0926 11.358 32.3824 11.6432 32.668C11.7598 32.7849 11.8945 32.8749 12.034 32.9682C12.2196 33.0921 12.4139 33.2219 12.5863 33.4286C13.2145 34.1818 13.8105 35.5562 14.2585 36.5894L14.2591 36.5906L14.2603 36.5934C14.3354 36.7665 14.4063 36.9301 14.4725 37.0794C14.2078 36.7629 14.0064 36.365 13.8039 35.965C13.5732 35.5092 13.341 35.0507 13.0122 34.7064L14.1987 37.4749L11.7952 33.3677L14.0161 37.8399L11.3997 33.2156L13.7118 38.0833C13.4617 37.6097 13.2169 37.1146 12.9696 36.6145C12.4178 35.4981 11.853 34.3559 11.1867 33.3677C11.1861 33.3668 11.1845 33.3645 11.1823 33.3609C11.1467 33.3048 10.9198 32.9474 10.8825 33.1243L13.3469 37.9616ZM10.3957 32.9418L11.1895 34.2919L11.1568 34.2375C10.889 33.7917 10.6279 33.3569 10.3957 32.9418Z" fill="#FFEDDD"></path>
<path d="M3.76348 30.3253L3.91977 30.3253C3.86775 30.3246 3.81562 30.3247 3.76348 30.3253Z" fill="#FFEDDD"></path>
<path d="M13.0732 33.5807C12.992 33.3795 12.8864 33.2 12.7812 33.0214C12.6634 32.8211 12.5461 32.6219 12.4647 32.3943C12.9174 32.548 15.2245 36.5923 14.9898 36.684C14.8045 36.422 14.6499 36.1238 14.4946 35.8241C14.2473 35.3473 13.9983 34.8669 13.6208 34.5239L14.6856 36.9274C14.4704 36.5436 14.2624 36.1536 14.0542 35.7633C13.6996 35.0982 13.3443 34.4319 12.9515 33.7938C12.9259 33.7522 12.8532 33.6546 12.7593 33.5289C12.4586 33.1257 11.9415 32.4323 12.0692 32.3639C12.3095 32.5929 12.5088 32.8554 12.7087 33.1188C12.8271 33.2748 12.9456 33.4309 13.0732 33.5807Z" fill="#FFEDDD"></path>
<path d="M12.7993 32.3029C13.1947 32.408 15.512 36.3313 15.2941 36.4405L12.7993 32.3029Z" fill="#FFEDDD"></path>
<path d="M13.5295 32.0595C14.4625 33.2688 15.2649 34.6602 15.8417 36.0754L14.6247 34.0675L13.5295 32.0595Z" fill="#FFEDDD"></path>
<path d="M15.2585 35.5341C14.6586 34.3547 14.0443 33.1468 13.1644 32.1812L15.5983 36.1971C15.485 35.9795 15.3729 35.759 15.2603 35.5377L15.2596 35.5363L15.2585 35.5341Z" fill="#FFEDDD"></path>
<path d="M14.1988 31.877C15.1129 33.0321 15.8891 34.3471 16.4502 35.7104L15.2637 33.7937L14.1988 31.877Z" fill="#FFEDDD"></path>
<path d="M16.1459 35.8929C15.5047 34.522 14.8024 33.1129 13.8337 31.9379C14.0261 32.4794 14.3636 33.0185 14.6856 33.5329C14.7795 33.683 14.872 33.8309 14.9594 33.9762C15.0447 34.1182 15.1293 34.2609 15.214 34.4037C15.5127 34.9074 15.812 35.4121 16.1459 35.8929Z" fill="#FFEDDD"></path>
<path d="M15.294 33.094C15.8444 33.8075 16.435 34.6534 16.6935 35.5278C16.5923 35.3607 16.4895 35.194 16.3865 35.027C15.9978 34.3968 15.607 33.7633 15.294 33.094Z" fill="#FFEDDD"></path>
<path d="M17.4845 34.5543C17.5916 34.5125 16.7246 32.5957 16.511 32.4855C16.6318 32.9565 16.881 33.4133 17.1258 33.862C17.2527 34.0947 17.3784 34.3252 17.4845 34.5543Z" fill="#FFEDDD"></path>
<path d="M15.9025 33.5807C16.177 33.8839 16.4556 34.2342 16.6631 34.5847C16.6781 34.61 16.6966 34.6398 16.7172 34.6731C16.8462 34.8812 17.0576 35.2218 16.9978 35.4061L15.9025 33.5807Z" fill="#FFEDDD"></path>
<path d="M16.9369 32.5463C17.3545 32.8834 17.6388 33.5512 17.7888 34.0675L16.9369 32.5463Z" fill="#FFEDDD"></path>
<path d="M10.2438 34.676C10.3262 34.8241 10.4233 34.9712 10.5215 35.1199C10.7343 35.4422 10.952 35.7718 11.0348 36.1363C10.9785 36.048 10.9196 35.9597 10.8602 35.8707L10.8589 35.8688C10.61 35.4956 10.3532 35.1103 10.2438 34.676Z" fill="#FFEDDD"></path>
<path d="M17.9408 33.3069L17.5453 32.7897L18.2146 34.0675L17.9408 33.3069Z" fill="#FFEDDD"></path>
<path d="M16.1459 32.668L16.6935 33.6416C16.6059 33.5442 15.9947 32.7453 16.1459 32.668Z" fill="#FFEDDD"></path>
<path d="M16.7543 34.3109C16.9807 34.5747 17.1919 34.8914 17.3019 35.2236C17.0739 35.025 16.8175 34.6068 16.7543 34.3109Z" fill="#FFEDDD"></path>
<path d="M13.9554 23.3585L14.4726 23.5715C14.3341 23.6551 13.9844 23.518 13.9554 23.3585Z" fill="#FFEDDD"></path>
<path d="M9.11807 27.8003L12.6168 31.8162C12.1988 31.7551 12 31.726 11.7041 31.6945C11.2647 31.6476 7.6348 27.37 7.50568 26.705C7.34298 25.867 7.87317 27.2336 7.90116 27.2831C8.49304 28.3291 9.5621 29.1181 10.2742 30.082L11.6737 31.2989C10.664 30.1726 9.43248 29.0756 8.57053 27.8307C8.50921 27.7422 7.38185 26.0553 7.80996 26.1574C8.69619 28.3438 10.6487 29.9045 12.2822 31.5423C11.2432 30.2851 9.9504 29.2228 9.11807 27.8003Z" fill="#FFEDDD"></path>
<path d="M9.63531 27.8612L12.8602 31.6945C12.1697 30.9182 11.3686 30.205 10.7001 29.4128C10.6074 29.303 9.49204 27.929 9.63531 27.8612Z" fill="#FFEDDD"></path>
<path d="M7.38399 26.7051C7.69538 28.2079 9.09531 29.098 10.0004 30.2342C9.10632 29.5921 8.01066 28.5338 7.53613 27.5265C7.43959 27.3216 7.18814 26.8686 7.38399 26.7051Z" fill="#FFEDDD"></path>
<path d="M11.3999 29.6257C12.0428 30.1845 12.7204 30.7812 13.1644 31.5119C12.4837 31.0333 11.9188 30.2813 11.3999 29.6257Z" fill="#FFEDDD"></path>
<path d="M8.47927 25.1839L8.69223 25.8836C8.5516 25.9181 8.4699 25.4025 8.41839 25.4273C8.18952 25.5376 9.10902 27.0155 9.14858 27.2527C8.82179 26.7196 7.91518 25.6922 8.47927 25.1839Z" fill="#FFEDDD"></path>
<path d="M8.11411 25.6707L8.66172 27.0702C8.58644 27.1077 7.76223 25.6543 8.11411 25.6707Z" fill="#FFEDDD"></path>
<path d="M7.26229 27.4961L8.35751 29.0173C8.1499 28.9751 6.9699 27.5568 7.26229 27.4961Z" fill="#FFEDDD"></path>
<path d="M12.3734 30.2342C12.6361 30.518 13.1628 30.9537 13.3469 31.2686C13.3996 31.3587 13.4998 31.3297 13.3469 31.4511L12.3734 30.2342Z" fill="#FFEDDD"></path>
<path d="M8.966 24.8189C9.01663 25.0715 9.01663 25.3572 8.966 25.6099C8.84895 25.4101 8.80027 25.0101 8.966 24.8189Z" fill="#FFEDDD"></path>
<path d="M13.2861 30.9035L13.7425 31.299C13.6732 31.449 13.2027 31.0445 13.2861 30.9035Z" fill="#FFEDDD"></path>
<path d="M6.83638 27.4352C6.92814 27.4491 7.08858 27.9589 7.0189 27.9828L6.86676 27.7699L6.83638 27.4352Z" fill="#FFEDDD"></path>
<path d="M7.93166 26.0358C7.99675 26.2428 8.2426 26.4713 8.17506 26.7051C8.13682 26.718 7.84852 26.1462 7.93166 26.0358Z" fill="#FFEDDD"></path>
<path d="M14.0163 23.0543L14.4118 23.3281L13.9554 23.176L14.0163 23.0543Z" fill="#FFEDDD"></path>
<path d="M9.45279 24.4538L12.1909 25.0014C12.2916 25.217 12.1598 25.1874 12.0084 25.1839C11.4228 25.1707 10.4905 24.7403 9.84832 24.7884C9.99952 25.0056 12.2732 25.2968 12.1605 25.4577L9.54404 24.9709C10.3217 25.4078 11.3491 25.3882 12.0692 25.7315L9.72662 25.336C10.4463 25.6909 11.2828 25.7184 12.0388 25.9445C12.0935 26.1667 9.66719 25.5758 9.48323 25.5186L11.9779 26.3096L9.33109 25.8533C9.20253 25.3861 9.27549 24.905 9.45279 24.4538Z" fill="#FFEDDD"></path>
<path d="M9.05732 23.0543C9.38066 23.2213 10.0397 23.1078 10.183 23.4194C10.1609 23.3963 9.09078 23.1777 9.33116 23.4194C9.58933 23.5412 10.0934 23.4955 10.3047 23.6019C10.4542 23.6772 10.6934 24.1766 11.0957 24.3321C11.3831 24.4431 11.8612 24.3965 12.1605 24.545L10.2439 24.3321C10.9161 24.613 11.7349 24.5775 12.343 24.8492L9.57455 24.3929L9.51374 24.2104L10.0309 24.2408L9.45286 23.967C9.76493 23.9289 10.1777 24.2697 10.4568 23.9974C10.1437 23.8925 9.56506 23.9616 9.39198 23.7236L10.3351 23.8148C9.53556 23.4503 9.50122 23.8861 9.05732 23.0543Z" fill="#FFEDDD"></path>
<path d="M9.05732 23.0543C8.54808 22.1001 9.05021 22.2274 9.90914 22.3545L8.99644 22.4762L9.93958 22.7501L8.99644 22.7196L10.0004 23.0543L9.05732 23.0543Z" fill="#FFEDDD"></path>
<path d="M9.69619 26.5225C10.7551 26.8949 11.8987 26.9521 12.9515 27.344L11.2173 27.0093L9.69619 26.5225Z" fill="#FFEDDD"></path>
<path d="M9.33104 26.1575C10.2947 26.5305 11.4263 26.5034 12.3429 26.9789C11.8239 26.8852 11.3057 26.765 10.7914 26.6443C10.3622 26.5435 9.62512 26.5183 9.33104 26.1575Z" fill="#FFEDDD"></path>
<path d="M9.81789 26.8268L13.0124 27.5873C12.2061 27.4888 11.3327 27.396 10.5481 27.1919C10.3209 27.1328 9.89273 27.0659 9.81789 26.8268Z" fill="#FFEDDD"></path>
<path d="M9.4528 22.0199C9.54211 21.9908 9.83877 21.9946 9.90915 22.1111L9.39198 22.1416C9.33229 22.1111 9.43437 22.0259 9.4528 22.0199Z" fill="#FFEDDD"></path>
<path d="M17.2411 19.4035C17.5461 19.4037 18.0514 19.5252 18.2451 19.7382C18.2854 19.7825 18.7333 20.7735 18.7319 20.8334C18.7305 20.8919 18.459 21.264 18.4581 21.4114C18.3557 21.4762 18.1757 20.804 18.0322 20.7421C17.9919 20.7248 17.3359 20.6951 17.302 20.6813C17.1993 20.6393 17.3846 20.5284 17.302 20.4379C17.279 20.4128 16.7062 20.5259 16.6327 20.5596C16.4105 20.6616 16.085 21.2246 15.8112 20.9551C15.8463 20.8684 16.4396 20.7911 16.4501 20.5596L15.5678 20.8943C15.7301 20.349 16.4973 20.3901 16.9064 20.1033L15.9937 20.2858C16.2744 19.9729 16.6925 19.8877 17.0889 19.799C16.5995 19.666 16.0459 20.1312 15.5982 19.8294L17.1194 19.6469L16.1154 19.6165C16.4771 19.5899 16.8828 19.4033 17.2411 19.4035Z" fill="#FFEDDD"></path>
<path d="M14.9898 20.1945C15.0469 20.1943 15.1077 20.1748 15.1419 20.225C15.0761 20.5627 14.3792 21.1443 14.5943 20.4684C14.6031 20.4408 14.9658 20.1947 14.9898 20.1945Z" fill="#FFEDDD"></path>
<path d="M15.1724 20.4379C15.2448 20.4167 15.6822 20.5718 15.2028 20.59L15.4766 20.7421L15.4158 20.8638L14.9595 20.7117C15.0472 20.6835 15.1557 20.4428 15.1724 20.4379Z" fill="#FFEDDD"></path>
<path d="M15.2941 20.2553C15.3593 20.236 15.6817 20.2843 15.6895 20.4075L15.2332 20.377C15.1732 20.3466 15.2769 20.2604 15.2941 20.2553Z" fill="#FFEDDD"></path>
<path d="M14.8681 20.8029L15.2636 21.0159L14.8073 20.9855L14.8681 20.8029Z" fill="#FFEDDD"></path>
<path d="M15.6591 20.0728C15.6734 20.0704 15.8464 20.1688 15.933 20.1641L15.5983 20.1945C15.537 20.1636 15.6473 20.0748 15.6591 20.0728Z" fill="#FFEDDD"></path>
<path d="M23.8734 23.3585C25.2985 23.8206 26.2995 25.0528 26.2464 26.5834C25.9649 25.9819 25.8244 25.078 25.4249 24.545C25.0593 24.057 24.3778 24.0338 23.9951 23.5411C23.7938 24.0018 24.9329 24.7092 24.999 24.9709L24.9686 25.1231C24.2356 24.8548 23.7795 24.1214 23.8734 23.3585Z" fill="#FFEDDD"></path>
<path d="M29.3496 28.4088C30.0786 28.3216 30.837 28.673 31.388 29.1086C31.331 29.2074 29.5022 28.4169 29.1671 28.8347L29.2888 28.5913L28.437 28.9564C28.4871 28.6787 29.1177 28.4365 29.3496 28.4088Z" fill="#FFEDDD"></path>
<path d="M28.802 25.4882C28.8148 25.9255 28.5967 26.2404 28.1631 26.3096L28.4369 25.8533C27.5127 26.3614 27.2646 27.1247 26.9158 28.0438C26.8752 26.7267 27.7719 26.0692 28.802 25.4882Z" fill="#FFEDDD"></path>
<path d="M23.3866 26.8268C24.3213 27.0757 25.1188 27.7223 25.4857 28.6218L23.3866 26.8268Z" fill="#FFEDDD"></path>
<path d="M29.8363 29.0172L30.5969 29.3519C30.0707 29.5595 29.7232 29.6843 29.3191 29.2302C29.4479 29.0131 30.5039 29.7749 29.8363 29.0172Z" fill="#FFEDDD"></path>
<path d="M28.5586 29.3215C28.7578 29.3148 29.2447 29.4995 29.4409 29.5953L28.011 29.6258C27.9024 29.4975 28.5256 29.3226 28.5586 29.3215Z" fill="#FFEDDD"></path>
<path d="M28.3152 27.0093C28.4594 27.3004 27.2947 28.1995 27.22 28.1654C27.3445 27.6135 28.0015 27.4491 28.3152 27.0093Z" fill="#FFEDDD"></path>
<path d="M24.056 27.9829L25.1208 28.5609C25.0803 28.6809 23.9804 28.2818 24.056 27.9829Z" fill="#FFEDDD"></path>
<path d="M24.7253 25.549C24.7475 25.6775 25.9495 26.5288 25.6988 26.6442C25.3991 26.2649 24.843 26.047 24.7253 25.549Z" fill="#FFEDDD"></path>
<path d="M24.7253 25.2448C25.0176 25.3504 25.2713 25.5502 25.425 25.8228C25.3381 25.9846 24.7253 25.3685 24.7253 25.2448Z" fill="#FFEDDD"></path>
<path d="M28.2544 28.713C28.4151 28.7687 28.0453 29.0376 28.011 29.0781C27.8862 29.2253 27.7924 29.4443 27.5851 29.504L27.8589 29.1085L28.2544 28.713Z" fill="#FFEDDD"></path>
<path d="M28.2544 26.4617C28.2699 26.6976 27.9213 26.8894 27.7676 27.0093C27.7432 26.7515 28.1181 26.6156 28.2544 26.4617Z" fill="#FFEDDD"></path>
<path d="M23.8734 27.6178L24.4514 27.8916C24.2812 27.9762 23.9101 27.8101 23.8734 27.6178Z" fill="#FFEDDD"></path>
<path d="M20.2835 36.258C20.5784 36.5623 20.8299 36.9283 20.8919 37.3532L20.2835 36.258Z" fill="#FFEDDD"></path>
<path d="M21.0744 37.84C21.2288 37.8265 21.3349 38.7195 21.2569 38.8744C21.2342 38.7694 20.8678 37.858 21.0744 37.84Z" fill="#FFEDDD"></path>
<path d="M21.3787 37.5966L21.5612 38.5093C21.4456 38.4502 21.1927 37.5964 21.3787 37.5966Z" fill="#FFEDDD"></path>
<path d="M21.622 37.2924C21.7896 37.4918 21.796 37.893 21.8045 38.1442C21.6635 37.945 21.5729 37.5348 21.622 37.2924Z" fill="#FFEDDD"></path>
<path d="M22.1088 36.8665C22.2637 36.9628 22.2917 37.3262 22.2305 37.475L22.1088 36.8665Z" fill="#FFEDDD"></path>
<path d="M21.9263 37.049L21.9871 37.7183C21.949 37.5039 21.713 37.2256 21.9263 37.049Z" fill="#FFEDDD"></path>
<path d="M20.5268 36.1972C20.6854 36.3421 20.9573 36.5712 20.9527 36.8057C20.8441 36.617 20.5297 36.4251 20.5268 36.1972Z" fill="#FFEDDD"></path>
<path d="M27.2808 31.9987C28.1176 32.1267 28.3172 32.448 28.2847 33.3069L27.9805 33.0027L27.9501 33.7025L27.8588 32.6985L27.798 33.3678L27.5851 32.6072C27.4326 32.7372 27.7489 33.3075 27.4938 33.2461L27.2808 31.9987Z" fill="#FFEDDD"></path>
<path d="M23.3866 30.5992C23.6867 30.9067 24.0634 31.2691 24.1776 31.6945L23.3866 30.5992Z" fill="#FFEDDD"></path>
<path d="M11.2173 19.0384C11.2691 19.0363 11.3574 19.023 11.3695 19.0689C9.32235 19.8718 6.84556 20.5752 5.07185 21.9591C4.98159 22.0295 4.55229 22.2484 4.34002 22.5134C4.26876 22.6023 4.25442 22.7159 4.27304 22.8283C4.30147 22.9998 4.31826 23.1811 4.06788 22.7805C3.89933 22.5109 4.39908 22.0471 4.58505 21.8982C5.3353 21.2975 10.371 19.0737 11.2173 19.0384Z" fill="#FFEDDD"></path>
<path fill-rule="evenodd" clip-rule="evenodd" d="M11.4283 13.4431C11.4274 13.4455 11.4268 13.4492 11.426 13.4542C11.421 13.4848 11.4087 13.5602 11.2781 13.623C11.092 13.7124 10.886 13.7875 10.6773 13.8635C10.2213 14.0296 9.75291 14.2002 9.45272 14.5357C9.57253 14.4891 9.81977 14.3811 10.1252 14.2477C10.9915 13.8693 12.3264 13.2862 12.5559 13.3187C12.5713 13.3209 12.6659 13.3949 12.6167 13.4404C12.5514 13.5008 12.34 13.565 12.0942 13.6394C11.7176 13.7536 11.2605 13.8923 11.1259 14.0793L12.9209 13.5621V13.6838L9.57436 15.205L13.0122 13.9577L9.87863 15.4484L12.9514 14.3228L9.87863 15.8135L12.7688 14.6879L9.93945 16.1177L13.1339 14.8704L9.90907 16.3916C9.93461 16.4762 10.8371 16.0638 11.574 15.7271C12.0137 15.5262 12.3944 15.3523 12.495 15.3267C12.5065 15.3238 12.5222 15.3189 12.5404 15.3131C12.645 15.28 12.8354 15.2197 12.8296 15.3572L9.96983 16.6958L13.2556 15.5397L9.90901 17.0609L13.2556 15.844L9.90901 17.3652L13.3164 16.1482L10.0003 17.6998C10.3114 17.5784 10.6304 17.4336 10.9539 17.2867C11.7623 16.9196 12.5984 16.5401 13.4077 16.4829C12.3612 16.7811 11.3488 17.2462 10.3958 17.7302C10.4118 17.7748 10.4979 17.7659 10.5441 17.7611L10.5479 17.7607C10.7844 17.7363 11.2447 17.524 11.724 17.3028C12.2179 17.075 12.7321 16.8379 13.0427 16.7872C13.213 16.7594 13.3542 16.7904 13.486 16.8193C13.6047 16.8454 13.7157 16.8697 13.8337 16.848C14.1888 16.7823 14.5427 16.7072 14.8969 16.6319C15.5624 16.4906 16.2289 16.3491 16.9063 16.27L14.7158 16.4525L16.8454 16.0874C17.0249 15.3268 15.7504 12.6413 14.2901 12.5785C13.2556 12.4841 12.0004 12.6543 11.065 13.2276L11.3997 13.258C11.1694 13.3863 10.8708 13.5077 10.5665 13.6315C10.1539 13.7992 9.73071 13.9714 9.4526 14.1707C9.43241 14.1852 9.21165 14.356 9.39178 14.3533C10.0351 13.9511 10.7256 13.6962 11.4277 13.4414L11.4283 13.4431ZM15.9634 15.8744C16.1662 15.8578 16.5135 15.8371 16.6935 15.9352L14.7161 16.1482C15.0722 16.0485 15.6067 15.9036 15.9634 15.8744ZM16.34 15.509C16.2753 15.5082 16.2105 15.5075 16.1459 15.5092C15.7447 15.5202 15.2637 15.6364 14.8461 15.7373C14.7807 15.7531 14.7169 15.7685 14.6552 15.7831C14.7141 15.7795 14.7754 15.776 14.8386 15.7724C15.4012 15.7406 16.1083 15.7007 16.5111 15.5092C16.4541 15.5103 16.3971 15.5096 16.34 15.509ZM15.9025 14.5358C16.0061 14.5492 16.0476 14.588 15.9634 14.6575C15.8989 14.7107 14.6754 14.8443 14.4726 14.8096C14.5778 14.7924 14.7439 14.7521 14.928 14.7075C15.2934 14.6191 15.7299 14.5134 15.9025 14.5358ZM16.0673 15.2042C15.9917 15.2017 15.9161 15.1992 15.8417 15.205C15.5043 15.2316 14.9015 15.3252 14.5943 15.4789C14.6903 15.4694 14.7879 15.461 14.8864 15.4525C15.3568 15.4119 15.8459 15.3697 16.2676 15.205C16.2013 15.2086 16.1343 15.2064 16.0673 15.2042ZM11.4303 13.4405C11.5165 13.3984 11.6016 13.3523 11.6869 13.3062C11.9683 13.1537 12.2523 12.9999 12.5864 12.9841C12.3822 13.184 12.0659 13.2657 11.7742 13.3409C11.6519 13.3725 11.5339 13.403 11.4303 13.4405ZM15.703 14.3345C15.6862 14.3136 15.6706 14.2945 15.6591 14.2923C15.5552 14.2733 14.5795 14.4747 14.4118 14.5661C14.8604 14.5409 15.3186 14.4873 15.7504 14.3836C15.735 14.3739 15.7184 14.3535 15.703 14.3345ZM15.294 13.7448C15.3272 13.7445 15.3604 13.7446 15.3936 13.7448C15.4212 13.7448 15.4489 13.745 15.4766 13.7448C15.6687 13.8519 14.3156 14.0184 14.2292 14.0186C14.392 13.8774 15.076 13.7463 15.294 13.7448ZM15.4558 14.0485C15.4017 14.0474 15.3477 14.0462 15.294 14.049C15.0684 14.0609 14.5722 14.17 14.3509 14.2619C14.4175 14.2577 14.4898 14.2548 14.5651 14.2517C14.9261 14.2369 15.3593 14.2191 15.5983 14.049C15.5509 14.0507 15.5034 14.0496 15.4558 14.0485ZM15.5374 14.9009C15.5692 14.9007 15.6011 14.9008 15.633 14.9009C15.662 14.9009 15.6909 14.901 15.7199 14.9009C15.9002 14.9996 14.6415 15.2138 14.5334 15.1138C14.6005 15.0991 14.6917 15.0761 14.793 15.0506C15.0552 14.9846 15.3847 14.9016 15.5374 14.9009ZM14.2901 13.6535C14.4008 13.8062 15.6756 13.4914 15.294 13.4405C15.2234 13.4311 14.9332 13.5023 14.6761 13.5655C14.5123 13.6058 14.3617 13.6428 14.2901 13.6535ZM14.6247 12.9538C14.6786 12.9521 14.7327 12.9528 14.7867 12.9535C14.8341 12.9541 14.8816 12.9547 14.9289 12.9538C14.9725 13.1276 13.9949 13.1642 13.9858 13.1059C14.0039 13.1007 14.0241 13.0948 14.046 13.0884C14.2191 13.038 14.4948 12.9577 14.6247 12.9538ZM15.0588 13.1968C15.0154 13.196 14.9721 13.1952 14.929 13.1972C14.8234 13.2019 14.669 13.2423 14.5198 13.2814C14.414 13.3091 14.3107 13.3361 14.2293 13.3493C14.5104 13.4099 14.9828 13.3894 15.1724 13.1972C15.1346 13.1983 15.0967 13.1976 15.0588 13.1968Z" fill="#FFEDDD"></path>
<path d="M10.6088 21.2897C10.6501 21.2791 10.7376 21.2773 10.761 21.3202L10.2438 21.9591C10.0163 21.7783 10.5138 21.3142 10.6088 21.2897Z" fill="#FFEDDD"></path>
<path d="M10.6088 23.5411C10.7742 23.6347 10.9074 23.7408 11.0339 23.8417C11.311 24.0626 11.5562 24.2581 12.0387 24.2408C11.5103 24.4161 10.8166 24.0316 10.6088 23.5411Z" fill="#FFEDDD"></path>
<path d="M11.5216 22.5067C11.6768 22.5838 11.9487 21.9172 11.7342 21.7155C11.685 21.8375 11.6598 21.9664 11.6341 22.0957C11.6066 22.2346 11.5789 22.3741 11.5216 22.5067Z" fill="#FFEDDD"></path>
<path d="M11.8867 23.7845C12.0329 23.8021 11.994 23.9442 11.9475 24.0279C11.2468 24.1795 11.7341 23.7661 11.8867 23.7845Z" fill="#FFEDDD"></path>
<path fill-rule="evenodd" clip-rule="evenodd" d="M11.2478 23.2369C11.2696 23.2355 11.2896 23.2355 11.3081 23.2355C11.3813 23.2355 11.4318 23.2356 11.4911 23.1457C11.5066 23.1012 11.4374 23.0255 11.3578 22.9383C11.2167 22.7839 11.0426 22.5933 11.2478 22.4764L11.1261 22.4155L10.761 22.7197L11.1869 22.233L10.761 22.2938L11.0044 22.0504C10.6952 21.9703 10.7755 21.9392 10.8773 21.8999C10.9389 21.8762 11.0083 21.8494 11.0044 21.807H10.761L11.2478 21.5636C10.8579 21.452 10.6779 21.6028 10.5176 22.0504C10.4769 22.164 10.4327 22.9543 10.4567 23.0239C10.4825 23.0983 11.2202 23.8416 11.2782 23.8453C11.638 23.8686 11.3401 23.3538 11.2478 23.2369Z" fill="#FFEDDD"></path>
<path d="M14.3205 29.0781C14.2203 29.0049 13.7413 28.9446 13.1985 28.8763C12.5039 28.7889 11.7046 28.6883 11.4609 28.5306C11.6924 28.8292 12.5017 28.9201 13.2005 28.9984C13.2421 29.0031 14.5058 29.2135 14.3205 29.0781Z" fill="#FFEDDD"></path>
<path d="M13.4278 29.6204C13.1198 29.6204 12.7912 29.5536 12.556 29.5648C13.0242 29.745 13.7765 29.7528 14.3723 29.7898C14.439 29.5648 13.8487 29.6204 13.4278 29.6204Z" fill="#FFEDDD"></path>
<path fill-rule="evenodd" clip-rule="evenodd" d="M24.3071 32.9389L24.9687 33.7633C24.7857 32.5748 24.0688 31.5878 23.2042 30.7818C23.0327 30.7578 23.4173 31.2277 23.5558 31.3968C23.5774 31.4233 23.5931 31.4424 23.5996 31.4511C23.5996 31.4512 23.5996 31.4511 23.5996 31.4511C23.6039 31.4551 23.6074 31.4584 23.6115 31.4623C23.6211 31.4714 23.6303 31.4801 23.6389 31.4881C23.679 31.5255 23.7083 31.5515 23.7324 31.5746C23.733 31.5751 23.7336 31.5757 23.7342 31.5763C23.7375 31.5795 23.7408 31.5827 23.7439 31.5858C23.7456 31.5874 23.7473 31.589 23.7489 31.5907C23.7517 31.5934 23.7544 31.5963 23.7571 31.5991C23.7591 31.6011 23.761 31.6032 23.7628 31.6052C23.766 31.6086 23.7691 31.612 23.7722 31.6155C23.7753 31.619 23.7784 31.6225 23.7815 31.6262C23.7835 31.6285 23.7856 31.6311 23.7876 31.6336C23.7897 31.6363 23.7919 31.639 23.7941 31.6418C23.7962 31.6446 23.7984 31.6474 23.8005 31.6503C23.8027 31.6532 23.8049 31.6562 23.8071 31.6593C23.8093 31.6623 23.8114 31.6653 23.8136 31.6684C23.8161 31.672 23.8187 31.6758 23.8212 31.6797C23.8247 31.685 23.8284 31.6905 23.8322 31.6963C23.8349 31.7006 23.8377 31.7048 23.8406 31.7094C23.8434 31.714 23.8465 31.719 23.8495 31.7238C23.8518 31.7275 23.854 31.7312 23.8564 31.7351C23.8597 31.7405 23.863 31.7462 23.8665 31.7519C23.8688 31.7557 23.8711 31.7597 23.8735 31.7637C23.8773 31.7702 23.8813 31.7769 23.8854 31.784C23.8861 31.7853 23.8869 31.7868 23.8877 31.788C23.893 31.7972 23.8982 31.8062 23.904 31.8162C23.9004 31.8128 23.8976 31.8101 23.8941 31.8068C23.8851 31.7982 23.8765 31.79 23.8684 31.7821C23.8635 31.7773 23.8587 31.7726 23.8541 31.7681C23.8461 31.7602 23.8385 31.7525 23.8313 31.7451C23.8267 31.7404 23.8222 31.7358 23.8179 31.7313C23.8113 31.7245 23.805 31.7177 23.799 31.7112C23.7956 31.7075 23.7921 31.7037 23.7888 31.7001C23.7829 31.6934 23.7773 31.687 23.7718 31.6807C23.7683 31.6767 23.7649 31.6726 23.7616 31.6687C23.757 31.6631 23.7525 31.6577 23.7481 31.6523C23.7451 31.6484 23.7419 31.6445 23.7389 31.6406C23.7355 31.6363 23.7321 31.6319 23.7288 31.6275C23.7223 31.619 23.7158 31.6104 23.7094 31.6016C23.7085 31.6004 23.7077 31.5992 23.7068 31.598C23.6971 31.5847 23.6872 31.5711 23.6764 31.5561C23.6552 31.5265 23.631 31.4928 23.5996 31.4511C23.5289 31.3835 23.0595 30.9614 23.0218 30.9645C21.759 32.4536 20.5436 33.8578 18.8539 34.8891L20.0403 35.7714L19.4623 35.0716C19.8815 35.2429 20.22 35.6135 20.554 35.9792C20.7446 36.1878 20.9337 36.3948 21.1356 36.5624L20.9226 36.106L19.7361 34.6762L21.4398 36.5016L20.0403 34.5545L21.8657 36.5016L20.1925 34.3415L22.1091 36.319L20.4967 34.2198L22.2308 36.0148L20.8922 34.0068L22.5351 36.0756C22.8642 35.9165 21.1147 33.811 20.8618 33.6722C20.9386 33.5055 21.3961 34.0102 21.5096 34.1355C21.5196 34.1465 21.5269 34.1545 21.5311 34.159C21.8284 34.4751 22.0792 34.8455 22.3275 35.2123C22.4561 35.4023 22.584 35.5914 22.7176 35.7714C22.9705 35.6828 21.9956 34.4765 21.4606 33.8145C21.2864 33.599 21.1589 33.4412 21.1356 33.3984L23.0218 35.7714C22.782 34.8009 22.0585 33.9222 21.3485 33.2463C21.3152 32.9948 21.7293 33.4335 21.8927 33.6066C21.9295 33.6455 21.9536 33.6711 21.957 33.6722L23.2652 35.5889L21.6832 32.9116L23.5086 35.4672C23.3744 34.639 22.8056 33.9494 22.2621 33.2902C22.1149 33.1118 21.9696 32.9356 21.8353 32.7595C22.57 33.2897 23.051 34.0677 23.5175 34.8224C23.5754 34.9162 23.6332 35.0095 23.6912 35.1021C24.02 34.9719 22.8293 33.5407 22.3236 32.9328C22.2047 32.7899 22.1236 32.6924 22.1091 32.6682C22.106 32.663 22.1017 32.6563 22.0966 32.6485C22.0582 32.5893 21.98 32.4688 22.1091 32.4857C22.971 33.3636 23.7108 34.3541 24.1171 35.528C23.9603 34.2064 23.005 33.1599 22.1411 32.2135L22.1396 32.2119C23.1298 32.8406 23.7367 33.9591 24.2388 34.9804C24.0671 33.8495 23.1922 32.9041 22.4323 32.0826L22.3829 32.0293C23.4491 32.7251 24.1561 34.0014 24.6038 35.1629L24.5125 34.524C24.0185 33.4867 23.3845 32.5377 22.5654 31.7251C23.606 32.4348 24.2901 33.6729 24.7863 34.7978C25.2271 34.7055 23.1832 31.7348 22.8696 31.6034L23.113 31.6642C23.1744 31.7416 23.2362 31.819 23.298 31.8966C23.9681 32.7367 24.6505 33.5923 25.0297 34.6153C25.2803 34.5663 24.8439 33.7498 24.3071 32.9389Z" fill="#FFEDDD"></path>
<path d="M27.3417 30.7818C27.0969 30.7247 26.6422 31.0001 26.5203 30.8731C26.3574 30.6209 26.4761 30.5523 26.4898 30.295L26.6723 30.5384L26.7332 30.295L26.9157 30.5992L26.8244 30.1429L27.0983 30.4775C27.2112 30.2085 26.9452 29.9886 26.7332 29.869C26.6323 30.1568 26.6348 29.757 26.4289 29.8082C26.3459 29.8289 26.619 29.9698 26.429 30.0516C25.4542 29.7916 24.2998 29.6646 23.5388 30.4471C24.5123 31.5941 25.0473 32.9645 25.3338 34.4326C25.5699 34.2736 25.0668 33.2452 25.3946 33.3374L25.6988 34.4326L25.6076 33.2461C25.8877 33.5461 25.8181 34.0058 25.8814 34.3718L25.9118 33.1244C26.1581 33.4323 26.105 33.9434 26.064 34.3109L26.2161 34.0979C26.1871 32.1124 26.5332 33.7997 26.3378 34.5238C26.3135 34.6138 25.7793 34.9853 26.0032 35.1627L26.3074 34.6759V35.1627L26.5508 34.7368L26.4595 35.1323C26.7385 35.1163 26.7167 34.6794 26.7637 34.5846C26.8422 34.4266 27.2788 34.3165 26.8245 34.2804L27.0375 33.7633L27.0071 34.1587L27.22 33.8849L27.2808 34.3717C28.0737 33.7957 27.4769 33.7917 27.3113 33.246C27.2108 32.9152 26.8753 31.6422 26.8245 31.3598C26.7456 30.9214 26.9661 31.6123 27.0679 31.3598L26.8854 31.0556L27.4025 31.6945C27.4644 31.7437 26.9942 30.7101 27.2504 31.0556C27.4091 31.2696 27.4516 31.5858 27.585 31.8162L27.4025 30.9643C27.6709 31.1907 27.6685 31.5629 27.7676 31.877V31.2077L27.9198 31.6641C28.2952 31.4728 27.5959 30.8411 27.3417 30.7818ZM25.3945 31.7553L24.9686 30.6601C25.1751 30.7168 25.559 31.7262 25.3945 31.7553ZM25.212 31.8162L24.6644 30.5384C24.7277 30.5071 25.3412 31.6321 25.212 31.8162ZM23.7822 30.508L24.0864 30.6297L24.7861 31.8162L24.1776 30.3558C24.6023 30.707 24.7478 31.2562 24.9991 31.7249C24.4781 32.4755 24.3056 30.7244 23.7822 30.508ZM24.9078 32.2421C25.0731 32.4984 25.1731 32.7933 25.212 33.094C25.0518 32.8958 24.8582 32.5077 24.9078 32.2421ZM25.0903 32.1204L25.3945 32.9114C25.2124 32.7539 25.0641 32.3502 25.0903 32.1204ZM25.5771 32.7897L25.3337 32.0596C25.3799 32.0434 25.7002 32.6659 25.5771 32.7897ZM25.8205 32.7289C25.693 32.5609 25.6466 32.2653 25.6379 32.0596C25.7536 32.2243 25.8861 32.5242 25.8205 32.7289Z" fill="#FFEDDD"></path>
<path d="M20.8312 17.5172C18.5586 17.3268 17.4995 17.7745 17.1803 16.5437C16.0146 16.8528 14.7578 16.7606 13.5904 17.0305C12.3022 17.3284 9.17882 18.3901 8.05335 19.0384C7.90159 19.1258 7.73952 19.4124 7.53618 19.4948L8.7653 19.1358C7.72172 19.5077 6.72543 19.9872 5.89335 20.6509C10.0474 18.5711 15.3096 17.4621 19.9793 17.6998C20.2964 17.7159 21.7741 18.0317 21.8656 18.004C22.4328 17.8321 21.36 17.5615 20.8312 17.5172ZM12.6776 17.6389C12.7384 17.638 12.7993 17.6396 12.8601 17.6389C13.0205 17.7256 10.7454 18.2245 10.5784 18.1561C11.1296 18.0801 12.1812 17.6465 12.6776 17.6389ZM11.2478 18.3387C11.2295 18.2638 12.6292 17.9549 12.7385 17.9432C12.8577 17.9304 12.9835 17.952 13.1036 17.9432C12.5411 18.1487 11.8624 18.241 11.2478 18.3387ZM15.8416 16.9088C15.9356 16.9013 16.224 16.8646 16.2675 16.9696L15.081 17.1218C15.2294 17.0006 15.6632 16.9231 15.8416 16.9088ZM15.081 17.6694C15.2645 17.5984 15.7978 17.4571 15.9633 17.4564C16.0241 17.4562 16.085 17.4566 16.1458 17.4564C16.3131 17.5473 15.1853 17.7641 15.081 17.6694ZM15.1419 17.3651C15.3473 17.2874 15.8249 17.1621 16.0242 17.1522C16.1251 17.1472 16.2273 17.1556 16.3284 17.1522C16.1279 17.3494 15.484 17.4005 15.1419 17.3651Z" fill="#FFEDDD"></path>
<path d="M3.14178 39.5065C2.89361 39.0204 2.49367 37.5887 2.35078 37.0118C1.96455 35.4522 1.79222 33.8352 1.65103 32.2353C1.56398 34.6774 2.24644 37.1548 2.91002 39.5143H3.14568L3.14317 39.5093L3.14178 39.5065Z" fill="#FFEDDD"></path>
<path d="M2.32033 31.3835L2.22907 32.7526C2.48247 35.0455 2.93203 37.3096 3.62857 39.5065C3.43058 39.3794 3.26977 38.9079 3.16807 38.6097C3.15882 38.5826 3.15002 38.5569 3.14178 38.533C2.62379 37.0348 2.19385 34.7605 2.04656 33.1785C2.01643 32.8548 2.01838 32.5177 2.02033 32.1839C2.02153 31.9753 2.02278 31.7679 2.01612 31.566C1.76618 34.2485 2.5092 36.9792 3.32851 39.5143H3.9665C3.4987 38.5897 3.12618 37.366 2.89838 36.3425C2.53775 34.7219 2.36505 33.0425 2.32033 31.3835Z" fill="#FFEDDD"></path>
<path d="M1.34675 32.7221C1.27492 35.0335 1.92731 37.3089 2.5687 39.5143H2.86643C1.95914 37.7538 1.71247 35.7155 1.47297 33.7361C1.43178 33.3958 1.39084 33.0572 1.34675 32.7221Z" fill="#FFEDDD"></path>
<path d="M4.4743 38.7417L4.47462 38.7428C4.54078 39.0002 4.60694 39.2574 4.67223 39.5143H4.98946C3.98443 36.7189 3.42619 33.7962 3.17216 30.8358C3.1348 33.5317 3.80839 36.1516 4.4743 38.7417Z" fill="#FFEDDD"></path>
<path d="M3.9748 38.1353C4.09594 38.5967 4.21663 39.0563 4.33053 39.5143H4.65939C3.55675 36.7923 3.01587 33.8348 2.92883 30.8967C2.71795 33.3484 3.35223 35.764 3.9748 38.1353Z" fill="#FFEDDD"></path>
<path d="M2.4721 31.4238C2.47305 31.4585 2.47405 31.4955 2.47248 31.5356C2.44802 32.165 2.61569 33.4089 2.70934 34.1036L2.71588 34.152C2.92682 35.7182 3.35368 37.2565 3.77644 38.7802L3.77676 38.7812C3.84462 39.0258 3.91248 39.2704 3.97921 39.5143H4.31009C3.20355 36.9009 2.68298 33.9187 2.62456 31.0792C2.46569 31.1877 2.46846 31.2874 2.4721 31.4238Z" fill="#FFEDDD"></path>
<path d="M0.976816 38.6302C1.10594 38.9914 1.2199 39.31 1.27103 39.5143H1.46436L0.434049 36.312C0.2843 36.6938 0.672728 37.7798 0.976816 38.6302Z" fill="#FFEDDD"></path>
<path d="M0.728388 35.938C0.69147 35.737 0.654677 35.5368 0.616627 35.3384C0.601093 36.5567 0.946438 37.7197 1.28914 38.8739C1.35254 39.0876 1.41594 39.3009 1.47688 39.5142H1.75814C1.18424 38.4204 0.953168 37.1621 0.728388 35.938Z" fill="#FFEDDD"></path>
<path d="M20.6381 37.5408C20.588 37.8553 19.6294 39.4827 19.4299 39.4827C19.5498 39.2465 19.611 39.2029 19.6668 39.1101C19.9834 38.5828 20.2835 38.0401 20.6356 37.5351C20.1059 36.375 19.1449 35.0404 18.3839 35.1559C17.9071 35.5349 17.3662 35.8407 16.8253 36.1465C16.2435 36.4755 15.6615 36.8046 15.1591 37.2247C15.0302 37.3326 14.79 37.6051 14.5509 37.8765C14.2549 38.2125 13.9605 38.5465 13.8813 38.5633C13.6898 38.6039 13.5504 38.5232 13.4666 38.4746C13.4342 38.4559 13.4102 38.442 13.3945 38.4416C13.2793 38.4392 13.1691 38.4548 13.0558 38.471C12.9325 38.4885 12.8056 38.5065 12.6643 38.5024C12.652 38.5021 12.6348 38.4809 12.6121 38.4531C12.569 38.4001 12.5061 38.323 12.4209 38.3199C12.2846 38.315 11.8429 38.4052 11.1431 38.685C10.7637 38.7511 11.2288 38.4545 11.5619 38.242C11.714 38.145 11.8386 38.0656 11.8429 38.0461C11.8781 37.8863 11.27 37.1765 10.987 36.8461C10.9346 36.7849 10.8934 36.7367 10.8694 36.7075C10.4987 36.2552 10.4233 36.0754 10.2324 35.6201C10.2043 35.5531 10.1737 35.4801 10.1392 35.3993C9.02796 32.7926 6.69663 30.0703 3.53726 30.7141C3.41242 33.1669 4.01871 35.5914 4.61525 37.977C4.74387 38.4912 4.87198 39.0038 4.99223 39.5143H19.6566L20.3614 38.4112L19.8338 39.5143H20.0215L20.696 38.5024C20.8232 38.5007 20.7864 38.5801 20.7515 38.6553C20.7419 38.6763 20.7323 38.6969 20.7264 38.7154C20.6551 38.9411 20.4843 39.2284 20.3022 39.5143H20.4289C20.5554 39.2568 20.6954 39.009 20.8785 38.8675C20.86 39.0877 20.7294 39.2978 20.5988 39.5079L20.5949 39.5143H20.7548C20.8992 39.2689 21.0253 39.0374 21.0307 38.898C21.0421 38.6011 20.8888 38.0909 20.6381 37.5408ZM10.1138 38.3191C9.98418 37.1975 9.73091 36.096 9.62701 34.9726C9.90569 36.0546 10.1298 37.1933 10.1138 38.3191ZM9.38361 36.2502L9.14022 34.6682C9.23211 35.1577 9.51607 35.761 9.38361 36.2502ZM7.74078 33.5122C7.88204 34.158 8.00085 34.8079 8.10588 35.4593C7.85494 34.8995 7.71431 34.124 7.74078 33.5122ZM3.78575 30.7741L4.57676 36.6153C4.2199 34.6889 3.69858 32.7543 3.78575 30.7741ZM5.37884 39.4091C5.13028 38.6418 4.81915 37.3239 4.78972 37.1529C4.52506 35.6168 4.27871 33.5048 4.18123 31.9484C4.15946 31.6006 4.14016 31.1116 4.21167 30.7741C4.49852 33.7432 4.81607 36.5167 5.50431 39.4091H5.37884ZM5.79884 39.409L5.45902 38.4858C4.90884 36.0395 4.65795 33.5382 4.51588 31.028C4.84795 32.6425 4.84682 34.3201 5.09393 35.947C5.2811 37.1793 5.61141 38.1897 5.84506 39.409H5.79884ZM6.13632 39.4092L6.00663 39.1235C5.51582 36.7513 5.06185 34.5065 4.91141 32.0753C4.89185 31.7589 4.84009 31.2582 4.94185 30.9645C5.18814 33.869 5.47764 36.5918 6.19934 39.4092H6.13632ZM6.4833 39.4091L6.25003 38.8667C5.80689 36.3414 5.35167 33.7941 5.30689 31.2184L6.53808 39.4091H6.4833ZM6.82349 39.4091C6.53286 38.286 6.30179 37.3148 6.12833 36.1692C5.89418 34.6224 5.72877 33.0399 5.67198 31.4723L6.25003 36.1692L6.84487 39.4091H6.82349ZM7.20255 39.4091C6.51695 36.9154 6.26695 34.4937 6.03707 31.9166L7.22456 39.4091H7.20255ZM7.56865 39.4091C6.93047 37.0349 6.65745 34.7433 6.40217 32.2974C6.80349 34.7292 7.08733 36.9961 7.5806 39.4091H7.56865ZM7.9328 39.4091L7.28443 36.3913L6.82808 32.6148C7.23456 34.9351 7.53839 37.089 7.94091 39.4091H7.9328ZM8.32431 39.4091C7.7428 37.2448 7.51405 35.1562 7.25406 32.9322C7.66959 35.1439 7.8872 37.2068 8.34399 39.4091H8.32431ZM8.66833 39.4091C8.35361 38.2153 8.22808 37.1388 8.10588 35.9153C8.38751 37.1263 8.50714 38.1833 8.70965 39.4091H8.66833ZM9.06066 39.4091C8.64412 37.4218 8.3567 35.5824 8.10588 33.5668C8.5089 35.5607 8.79462 37.3945 9.08531 39.4091H9.06066ZM9.41928 39.409C9.41915 39.3875 9.41808 39.3661 9.41399 39.3456C9.13695 37.9599 8.78236 36.2538 8.62299 34.868C8.60896 34.7458 8.55821 34.4828 8.65343 34.3919C8.95563 36.068 9.31531 37.583 9.47487 39.2822C9.4789 39.3253 9.48758 39.3675 9.49714 39.409H9.41928ZM9.4445 36.5546C9.70204 37.5352 9.86003 38.3932 9.87041 39.4094C9.6806 38.4043 9.5633 37.5692 9.4445 36.5546ZM10.1746 39.4094C10.1641 39.1471 10.0371 39.0699 10.1137 38.8059C10.2729 38.8456 10.2147 39.4094 10.1746 39.4094ZM10.3571 36.9197L10.4788 38.0149C10.2943 37.9267 10.3011 36.9199 10.3571 36.9197ZM10.5397 39.4702C10.3927 39.4034 10.4385 38.868 10.4788 38.8667C10.519 38.8654 10.6317 39.374 10.5397 39.4702ZM10.9341 39.2287L10.9949 38.8028L11.0862 38.8332L10.9341 39.2287ZM11.2383 39.3504C11.2636 39.2251 11.2397 39.0705 11.36 38.9853C11.4241 39.0019 11.3557 39.3589 11.2383 39.3504ZM11.6034 39.4721C11.5767 39.3956 11.7379 39.0302 11.7859 39.0462C11.8848 39.0789 11.6954 39.5089 11.6034 39.4721ZM12.1549 39.2664L12.0825 39.2516C12.0875 39.1248 12.2443 38.857 12.2949 38.8285C12.32 38.9691 12.2479 39.1476 12.1549 39.2664ZM12.4574 39.328C12.4954 39.1217 12.7091 38.6917 12.7817 38.6459L12.5148 39.3397L12.4574 39.328ZM12.8547 39.4091L12.7715 39.3921C12.8184 39.1691 12.9972 38.8206 13.025 38.8285C13.1074 38.8518 12.9542 39.2003 12.8547 39.4091ZM13.1563 39.4705L13.1094 39.4609L13.3293 38.8893C13.4441 39.0107 13.2882 39.2685 13.1563 39.4705ZM13.5213 39.4751L13.4437 39.4594C13.5524 39.1804 13.7205 38.8164 13.7552 38.8285C13.8605 38.865 13.6832 39.216 13.5213 39.4751ZM13.8096 39.3582L14.0594 38.8285C14.1686 39.0336 14.007 39.1134 13.8378 39.364L13.8096 39.3582ZM14.122 39.4219L14.0595 39.4091C14.1752 39.125 14.2673 39.0892 14.4246 38.8284C14.376 39.0743 14.3181 39.2128 14.122 39.4219ZM14.6746 39.4798L14.6517 39.4751C14.9614 38.7334 14.8523 39.0297 15.2249 38.3191L14.7381 39.4751L14.6746 39.4798ZM15.7725 38.2583C15.5768 39.0563 15.6371 38.7733 15.1922 39.4609C15.4924 38.6735 15.4098 39.0189 15.7725 38.2583ZM16.1985 38.2583C16.2807 38.344 16.0883 38.7389 16.0463 38.8363C15.9359 38.9616 15.9547 38.9471 15.5892 39.4798L16.1985 38.2583ZM15.963 39.4594L16.754 37.8773C16.8899 37.9421 16.128 39.3536 15.963 39.4594ZM16.353 39.4798C16.8534 38.5336 16.8322 38.646 17.3545 37.7106L17.1798 38.1211C17.0377 38.4549 16.8595 38.7721 16.6483 39.0672L16.353 39.4798ZM18.2064 36.9196L17.2937 38.6841L16.7801 39.4594C17.3654 38.2204 17.5413 38.1106 18.2064 36.9196ZM17.172 39.4448C17.2361 39.115 17.4975 38.8429 17.6588 38.5625C18.2115 37.6016 18.1783 37.5156 18.7844 36.6458C18.7977 36.6268 18.9525 36.4026 19.0278 36.4024C18.3649 37.4679 18.3778 37.5555 17.7196 38.6233C17.5494 38.8995 17.425 39.2271 17.172 39.4448ZM19.0278 36.8588C19.1283 36.6365 19.1832 36.3754 19.3625 36.1895L19.0278 36.8588C18.741 37.4933 18.4383 38.099 18.1151 38.7146L17.606 39.4448L19.0278 36.8588ZM19.7275 36.1286C19.1052 37.6639 18.9656 38.0573 17.971 39.3839C18.7902 37.929 18.9709 37.62 19.7275 36.1286ZM18.2825 39.4594C18.1369 39.392 18.5147 39.0863 18.6019 38.9276C19.0668 38.0816 19.4542 37.1903 19.9709 36.3721C19.6776 37.2536 19.1232 38.099 18.6627 38.9276C18.3585 39.4751 18.2825 39.4594 18.2825 39.4594ZM20.0925 36.7371L19.7579 37.6802L19.2407 38.6233C19.4306 37.9599 19.8429 37.377 20.0925 36.7371ZM19.1469 38.3008C19.3072 38.2962 19.2059 38.4331 19.1774 38.5138C19.0527 38.8658 18.7434 39.1018 18.5539 39.4594L19.1469 38.3008ZM19.4038 38.5138C19.5426 38.7404 19.0919 39.2073 18.9779 39.4265L19.4038 38.5138ZM20.3969 37.1022C20.1736 37.8425 19.7415 38.5006 19.3625 39.171C19.5834 38.4508 20.0131 37.7618 20.3969 37.1022Z" fill="#FFEDDD"></path>
<path d="M0.847502 34.5107C0.831338 34.4009 0.815238 34.2914 0.799074 34.1824C0.764357 35.7672 1.20643 37.3008 1.64253 38.8136C1.71002 39.0475 1.77731 39.2812 1.84272 39.5143H2.10473C1.35738 37.977 1.09719 36.2083 0.847502 34.5107Z" fill="#FFEDDD"></path>
<path d="M1.07291 34.5779C1.25505 36.1497 1.67668 37.665 2.09889 39.1821L2.09958 39.1846C2.13021 39.2944 2.16077 39.4045 2.19121 39.5143H2.50499C1.59826 37.6416 1.28587 35.4615 1.10341 33.3914L1.07291 34.5779Z" fill="#FFEDDD"></path>
<path d="M15.0328 2.94346C15.0697 2.97011 15.1049 3 15.1381 3.03315C15.2306 3.12543 15.2978 3.23339 15.3397 3.34844C15.3817 3.23339 15.4489 3.12543 15.5414 3.03315C15.5731 3.0015 15.6066 2.97281 15.6417 2.94709C15.6034 2.74703 15.4923 2.57278 15.3369 2.45288C15.1825 2.57205 15.0717 2.74493 15.0328 2.94346Z" fill="#90765F"></path>
<path d="M16.2177 2.87336C15.9985 2.85556 15.7734 2.93032 15.6059 3.09755C15.4383 3.26479 15.3634 3.48946 15.3813 3.70818C15.6004 3.72597 15.8255 3.65122 15.993 3.48398C16.1606 3.31675 16.2355 3.09208 16.2177 2.87336Z" fill="#90765F"></path>
<path d="M14.4618 2.87336C14.6809 2.85556 14.906 2.93032 15.0736 3.09755C15.2411 3.26479 15.316 3.48946 15.2982 3.70818C15.0791 3.72597 14.854 3.65122 14.6864 3.48398C14.5189 3.31675 14.444 3.09208 14.4618 2.87336Z" fill="#90765F"></path>
<path d="M15.8419 11.1636L15.3397 10.6614L14.8375 11.1636H4.58496V11.2265H14.8375L15.3397 11.7287L15.8419 11.2265H26.0944V11.1636H15.8419Z" fill="#90765F"></path>
<path d="M4.65038 13.5524C4.63118 13.5524 4.62158 13.5454 4.62158 13.5313C4.62158 13.5198 4.6299 13.5121 4.64654 13.5083L4.69071 13.5006C4.71759 13.4955 4.73487 13.4884 4.74255 13.4795C4.75151 13.4705 4.75599 13.4526 4.75599 13.4257V12.2966C4.75599 12.2698 4.75151 12.2518 4.74255 12.2429C4.73487 12.2339 4.71759 12.2269 4.69071 12.2218L4.64654 12.2141C4.6299 12.2102 4.62158 12.2026 4.62158 12.191C4.62158 12.177 4.63118 12.1699 4.65038 12.1699H5.29557C5.32501 12.1699 5.34101 12.1846 5.34357 12.2141L5.35893 12.5328C5.36149 12.5546 5.35317 12.5655 5.33397 12.5655C5.31861 12.5655 5.30965 12.5572 5.30709 12.5405L5.29557 12.4695C5.28149 12.3824 5.25268 12.3191 5.20916 12.2794C5.16563 12.2384 5.10547 12.2179 5.02866 12.2179C4.97746 12.2179 4.94161 12.2256 4.92113 12.241C4.90193 12.255 4.89233 12.2806 4.89233 12.3178V12.7805C4.89233 12.7985 4.90129 12.8074 4.91921 12.8074H5.01522C5.07155 12.8074 5.10611 12.7773 5.11891 12.7172L5.13811 12.6212C5.14323 12.602 5.15411 12.5936 5.17075 12.5962C5.18484 12.5988 5.19188 12.6096 5.19188 12.6288V13.0609C5.19188 13.0801 5.18484 13.091 5.17075 13.0935C5.15411 13.0961 5.14323 13.0878 5.13811 13.0686L5.11891 12.9745C5.10995 12.9297 5.09715 12.9002 5.08051 12.8861C5.06514 12.8721 5.04274 12.865 5.0133 12.865H4.91921C4.90129 12.865 4.89233 12.874 4.89233 12.8919V13.3739C4.89233 13.42 4.90385 13.4532 4.92689 13.4737C4.95121 13.4942 4.99474 13.5044 5.05746 13.5044C5.12147 13.5044 5.17588 13.4884 5.22068 13.4564C5.26676 13.4232 5.29877 13.3617 5.31669 13.2721L5.33973 13.1588C5.34357 13.1422 5.35317 13.1338 5.36853 13.1338C5.38646 13.1338 5.39414 13.1447 5.39158 13.1665L5.37237 13.5083C5.36981 13.5377 5.35381 13.5524 5.32437 13.5524H4.65038Z" fill="#90765F"></path>
<path d="M5.73169 13.5697C5.70609 13.5697 5.67728 13.5672 5.64528 13.562C5.61456 13.5569 5.58511 13.5505 5.55695 13.5428C5.53007 13.5352 5.50895 13.5268 5.49359 13.5179C5.48462 13.5128 5.47758 13.5076 5.47246 13.5025C5.46862 13.4961 5.4667 13.4859 5.4667 13.4718L5.4571 13.1703C5.4571 13.1447 5.46542 13.1319 5.48206 13.1319C5.49615 13.1319 5.50575 13.1434 5.51087 13.1665L5.52815 13.2395C5.57167 13.4225 5.65296 13.514 5.77201 13.514C5.83602 13.514 5.88658 13.4929 5.92371 13.4507C5.96211 13.4072 5.98131 13.3463 5.98131 13.2683C5.98131 13.1927 5.96147 13.1223 5.92179 13.057C5.88338 12.9918 5.8213 12.9271 5.73553 12.8631C5.6408 12.7953 5.57167 12.73 5.52815 12.6672C5.48462 12.6032 5.46286 12.5354 5.46286 12.4637C5.46286 12.369 5.49551 12.2934 5.56079 12.2371C5.62736 12.1795 5.71185 12.1507 5.81426 12.1507C5.85266 12.1507 5.88978 12.1552 5.92563 12.1642C5.96147 12.1731 5.99091 12.1859 6.01395 12.2026C6.02164 12.2077 6.0274 12.2134 6.03124 12.2198C6.03636 12.2262 6.03892 12.2346 6.03892 12.2448L6.04468 12.5348C6.04468 12.5565 6.03636 12.5674 6.01972 12.5674C6.00819 12.5674 5.99987 12.5584 5.99475 12.5405L5.98131 12.4925C5.95315 12.3939 5.92371 12.3223 5.89298 12.2774C5.86354 12.2314 5.82066 12.2083 5.76433 12.2083C5.70929 12.2083 5.66512 12.2262 5.63184 12.2621C5.59984 12.2979 5.58383 12.3485 5.58383 12.4138C5.58383 12.4688 5.60176 12.5213 5.6376 12.5712C5.67344 12.6212 5.73617 12.682 5.82578 12.7537C5.92179 12.8317 5.99155 12.9073 6.03508 12.9802C6.07988 13.0519 6.10228 13.1287 6.10228 13.2107C6.10228 13.2823 6.08628 13.3451 6.05428 13.3988C6.02228 13.4526 5.97811 13.4948 5.92179 13.5256C5.86674 13.555 5.80337 13.5697 5.73169 13.5697Z" fill="#90765F"></path>
<path d="M6.2951 13.5524C6.27589 13.5524 6.26629 13.5454 6.26629 13.5313C6.26629 13.5172 6.27461 13.5096 6.29126 13.5083L6.37766 13.4948C6.40327 13.491 6.42055 13.4846 6.42951 13.4756C6.43847 13.4654 6.44295 13.4468 6.44295 13.42V12.2678C6.44295 12.2499 6.43911 12.2371 6.43143 12.2294C6.42375 12.2218 6.40775 12.2179 6.38343 12.2179C6.33606 12.2179 6.28934 12.2384 6.24325 12.2794C6.19717 12.3203 6.16708 12.3863 6.153 12.4771L6.1434 12.5405C6.14084 12.5572 6.13188 12.5655 6.11652 12.5655C6.09732 12.5655 6.089 12.5546 6.09156 12.5328L6.10884 12.1853C6.1114 12.1558 6.12292 12.1411 6.1434 12.1411C6.15236 12.1411 6.16068 12.1437 6.16836 12.1488C6.17605 12.1526 6.18885 12.1571 6.20677 12.1622C6.22597 12.1674 6.25605 12.1699 6.29702 12.1699H6.72522C6.76618 12.1699 6.79562 12.1674 6.81355 12.1622C6.83275 12.1571 6.84619 12.1526 6.85387 12.1488C6.86283 12.1437 6.87115 12.1411 6.87883 12.1411C6.89931 12.1411 6.91084 12.1558 6.9134 12.1853L6.93068 12.5328C6.93324 12.5546 6.92492 12.5655 6.90572 12.5655C6.89035 12.5655 6.88139 12.5572 6.87883 12.5405L6.86923 12.4771C6.85643 12.3863 6.82699 12.3203 6.7809 12.2794C6.73482 12.2384 6.68745 12.2179 6.63881 12.2179C6.61449 12.2179 6.59849 12.2218 6.59081 12.2294C6.58312 12.2371 6.57928 12.2499 6.57928 12.2678V13.42C6.57928 13.4468 6.58376 13.4654 6.59273 13.4756C6.60297 13.4846 6.62025 13.491 6.64457 13.4948L6.73098 13.5083C6.74762 13.5096 6.75594 13.5172 6.75594 13.5313C6.75594 13.5454 6.74634 13.5524 6.72714 13.5524H6.2951Z" fill="#90765F"></path>
<path d="M7.00912 13.5697C6.98096 13.5697 6.95663 13.5608 6.93615 13.5428C6.91695 13.5236 6.90735 13.4987 6.90735 13.468C6.90735 13.4385 6.91695 13.4148 6.93615 13.3969C6.95663 13.3777 6.98096 13.3681 7.00912 13.3681C7.03472 13.3681 7.05776 13.3777 7.07825 13.3969C7.09873 13.4148 7.10897 13.4385 7.10897 13.468C7.10897 13.4987 7.09873 13.5236 7.07825 13.5428C7.05776 13.5608 7.03472 13.5697 7.00912 13.5697Z" fill="#90765F"></path>
<path d="M24.2178 10.1117L23.2442 7.87938L23.0808 9.70833C23.0715 9.80105 23.0982 9.87639 23.1608 9.93434C23.2234 9.99229 23.2999 10.0236 23.3903 10.0282V10.063H22.6949V10.0282C22.7829 10.0236 22.8571 9.99113 22.9174 9.93086C22.9777 9.87059 23.0124 9.79526 23.0217 9.70485L23.1956 7.78202C23.1515 7.69162 23.0959 7.62092 23.0287 7.56992C22.9638 7.51661 22.8791 7.48995 22.7748 7.48995V7.45518H23.6093L24.4577 9.41973L25.3062 7.45518H25.9564V7.48995C25.8822 7.48995 25.8196 7.51197 25.7686 7.55601C25.7176 7.60006 25.6944 7.66032 25.6991 7.73682L25.8764 9.79526C25.888 9.87407 25.9251 9.93318 25.9877 9.97259C26.0526 10.012 26.1163 10.0317 26.1789 10.0317V10.063H25.101V10.0317C25.1404 10.0317 25.181 10.0224 25.2227 10.0039C25.2644 9.98534 25.298 9.95868 25.3235 9.92391C25.3514 9.88914 25.3618 9.84857 25.3548 9.80221L25.1845 7.88286L24.2178 10.1117Z" fill="#90765F"></path>
<path d="M21.6099 10.1117C21.4059 10.1117 21.2286 10.0723 21.0779 9.99345C20.9272 9.91464 20.8102 9.80337 20.7267 9.65965C20.6456 9.51361 20.605 9.34324 20.605 9.14852V7.76811C20.605 7.68466 20.5795 7.61744 20.5285 7.56644C20.4775 7.51545 20.4103 7.48995 20.3269 7.48995H20.3129V7.45518H21.4326V7.48995H21.4221C21.3387 7.48995 21.2715 7.51545 21.2205 7.56644C21.1695 7.61744 21.144 7.68466 21.144 7.76811V9.14852C21.144 9.39423 21.2066 9.58895 21.3317 9.73267C21.4592 9.87407 21.6308 9.94477 21.8463 9.94477C22.0642 9.94477 22.2358 9.87291 22.361 9.72919C22.4861 9.58315 22.5487 9.3896 22.5487 9.14852V7.82027C22.5487 7.72059 22.5186 7.64178 22.4583 7.58383C22.398 7.52588 22.3181 7.49458 22.2184 7.48995V7.45518H22.9381V7.48995C22.8385 7.49458 22.7585 7.52588 22.6982 7.58383C22.638 7.64178 22.6078 7.72059 22.6078 7.82027V9.14852C22.6078 9.34324 22.5673 9.51245 22.4861 9.65617C22.4073 9.79989 22.2926 9.91232 22.1419 9.99345C21.9935 10.0723 21.8162 10.1117 21.6099 10.1117Z" fill="#90765F"></path>
<path d="M19.3953 10.1117C19.3351 10.1117 19.2852 10.1094 19.2458 10.1047C19.2087 10.1001 19.1716 10.0943 19.1345 10.0873C19.0975 10.0804 19.0522 10.0746 18.9989 10.0699C18.9456 10.0653 18.8726 10.063 18.7799 10.063L18.6582 9.15895H18.6999C18.7347 9.44407 18.8135 9.66428 18.9363 9.81959C19.0615 9.97259 19.2215 10.0491 19.4162 10.0491C19.5599 10.0491 19.677 10.0085 19.7674 9.92738C19.8578 9.84625 19.903 9.74078 19.903 9.61097C19.903 9.55534 19.8925 9.50202 19.8717 9.45102C19.8531 9.40003 19.8207 9.34555 19.7743 9.2876C19.728 9.22965 19.6665 9.16706 19.59 9.09984C19.5135 9.0303 19.4185 8.95264 19.3049 8.86687L19.1624 8.75908C18.9885 8.62695 18.868 8.50873 18.8007 8.40442C18.7335 8.30011 18.6999 8.18652 18.6999 8.06366C18.6999 7.85967 18.7741 7.69973 18.9224 7.58383C19.0731 7.4656 19.2713 7.40649 19.517 7.40649C19.5773 7.40649 19.626 7.40881 19.6631 7.41345C19.7025 7.41808 19.7396 7.42388 19.7743 7.43083C19.8114 7.43779 19.8543 7.44358 19.903 7.44822C19.9517 7.45286 20.0142 7.45517 20.0907 7.45517L20.1255 8.15755H20.0907C20.0583 7.94197 19.9887 7.77159 19.8821 7.64641C19.7755 7.52124 19.6468 7.45865 19.4962 7.45865C19.3895 7.45865 19.3038 7.48994 19.2389 7.55253C19.1763 7.61512 19.145 7.69857 19.145 7.80288C19.145 7.89329 19.1739 7.98021 19.2319 8.06366C19.2922 8.1448 19.3953 8.23984 19.5414 8.34879L19.6909 8.46005C19.8439 8.57132 19.9644 8.67447 20.0525 8.76951C20.1429 8.86224 20.2078 8.95264 20.2472 9.04073C20.2866 9.12881 20.3063 9.22269 20.3063 9.32237C20.3063 9.47536 20.2681 9.61097 20.1916 9.72919C20.1151 9.84741 20.0084 9.94013 19.8717 10.0074C19.7372 10.0723 19.5784 10.107 19.3953 10.1117Z" fill="#90765F"></path>
<path d="M16.4627 10.063V10.0282C16.5462 10.0282 16.6134 10.0027 16.6644 9.95173C16.7154 9.90073 16.7409 9.83351 16.7409 9.75006V7.76811C16.7409 7.68466 16.7154 7.61744 16.6644 7.56644C16.6134 7.51545 16.5462 7.48995 16.4627 7.48995V7.45518H17.6241C17.8026 7.45749 17.9579 7.48879 18.09 7.54906C18.2245 7.60701 18.3288 7.68814 18.403 7.79245C18.4795 7.89677 18.5177 8.01962 18.5177 8.16103C18.5177 8.30243 18.4795 8.42644 18.403 8.53307C18.3288 8.63739 18.2222 8.71968 18.0831 8.77995C17.9463 8.8379 17.784 8.86687 17.5963 8.86687H17.2764V9.75006C17.2764 9.83351 17.3019 9.90073 17.3529 9.95173C17.4039 10.0027 17.4711 10.0282 17.5546 10.0282H17.5615V10.063H16.4627ZM17.2764 8.82167H17.4815C17.5812 8.82167 17.667 8.79386 17.7388 8.73822C17.813 8.68027 17.8698 8.60146 17.9092 8.50178C17.9509 8.4021 17.9718 8.28852 17.9718 8.16103C17.9718 8.03353 17.9509 7.91995 17.9092 7.82027C17.8698 7.72059 17.813 7.64294 17.7388 7.58731C17.6647 7.52935 17.5777 7.50038 17.4781 7.50038H17.2764V8.82167Z" fill="#90765F"></path>
<path d="M15.3999 10.063V10.0282H15.4034C15.4869 10.0282 15.5541 10.0027 15.6051 9.95173C15.6561 9.90073 15.6816 9.83351 15.6816 9.75006V7.76811C15.6816 7.68466 15.6561 7.61744 15.6051 7.56644C15.5541 7.51545 15.4869 7.48995 15.4034 7.48995H15.3999V7.45518H16.5022V7.48995H16.4987C16.4152 7.48995 16.348 7.51545 16.297 7.56644C16.246 7.61744 16.2205 7.68466 16.2205 7.76811V9.75006C16.2205 9.83351 16.246 9.90073 16.297 9.95173C16.348 10.0027 16.4152 10.0282 16.4987 10.0282H16.5022V10.063H15.3999Z" fill="#90765F"></path>
<path d="M13.9179 10.1117C13.6397 10.1117 13.3952 10.056 13.1842 9.94477C12.9756 9.83118 12.8122 9.67356 12.6939 9.47189C12.578 9.2679 12.5201 9.03029 12.5201 8.75908C12.5201 8.48787 12.578 8.25143 12.6939 8.04976C12.8122 7.84577 12.9756 7.68814 13.1842 7.57687C13.3952 7.46329 13.6397 7.40649 13.9179 7.40649C14.196 7.40649 14.4394 7.46329 14.6481 7.57687C14.859 7.68814 15.0224 7.84577 15.1383 8.04976C15.2566 8.25143 15.3157 8.48787 15.3157 8.75908C15.3157 9.03029 15.2566 9.2679 15.1383 9.47189C15.0224 9.67356 14.859 9.83118 14.6481 9.94477C14.4394 10.056 14.196 10.1117 13.9179 10.1117ZM13.9179 10.056C14.0384 10.056 14.1485 10.0247 14.2482 9.96215C14.3479 9.89957 14.4336 9.81148 14.5055 9.6979C14.575 9.58431 14.6284 9.44755 14.6654 9.2876C14.7049 9.12765 14.7246 8.95032 14.7246 8.7556C14.7246 8.56089 14.7049 8.38356 14.6654 8.22361C14.6284 8.06135 14.575 7.92342 14.5055 7.80984C14.4336 7.69625 14.3479 7.60817 14.2482 7.54558C14.1485 7.48299 14.0384 7.4517 13.9179 7.4517C13.7973 7.4517 13.6872 7.48299 13.5876 7.54558C13.4879 7.60817 13.4033 7.69625 13.3337 7.80984C13.2619 7.92342 13.2062 8.06135 13.1668 8.22361C13.1297 8.38356 13.1112 8.56089 13.1112 8.7556C13.1112 8.95032 13.1297 9.12765 13.1668 9.2876C13.2062 9.44755 13.2619 9.58431 13.3337 9.6979C13.4033 9.81148 13.4879 9.89957 13.5876 9.96215C13.6872 10.0247 13.7973 10.056 13.9179 10.056Z" fill="#90765F"></path>
<path d="M11.1599 10.1117C10.8516 10.1117 10.5838 10.056 10.3567 9.94477C10.1318 9.8335 9.95795 9.67587 9.8351 9.47189C9.71224 9.2679 9.65081 9.02798 9.65081 8.75213C9.65081 8.48323 9.71224 8.24795 9.8351 8.04628C9.95795 7.84461 10.1295 7.68814 10.3497 7.57687C10.5722 7.46329 10.8319 7.40649 11.1286 7.40649C11.219 7.40649 11.2932 7.40997 11.3511 7.41693C11.4114 7.42156 11.4647 7.42736 11.5111 7.43431C11.5574 7.44127 11.6084 7.44822 11.664 7.45517C11.722 7.45981 11.7939 7.46213 11.8796 7.46213L11.9839 8.15755H11.9492C11.9074 7.93733 11.8136 7.76463 11.6675 7.63946C11.5238 7.51428 11.3442 7.4517 11.1286 7.4517C10.9964 7.4517 10.8759 7.48299 10.767 7.54558C10.658 7.60817 10.5653 7.69509 10.4888 7.80636C10.4123 7.91994 10.352 8.05671 10.308 8.21666C10.2663 8.3766 10.2454 8.55393 10.2454 8.74865C10.2454 8.94569 10.2651 9.12534 10.3045 9.2876C10.3462 9.44755 10.403 9.58431 10.4749 9.6979C10.5491 9.81148 10.6371 9.89957 10.7391 9.96215C10.8435 10.0247 10.9594 10.056 11.0868 10.056C11.1819 10.056 11.2723 10.0398 11.3581 10.0074C11.4461 9.9749 11.5134 9.93434 11.5597 9.88566V8.999C11.5597 8.91555 11.5342 8.84833 11.4832 8.79733C11.4322 8.74633 11.365 8.72083 11.2816 8.72083H11.2711V8.68606H12.3908V8.72083H12.3768C12.2934 8.72083 12.2262 8.74633 12.1752 8.79733C12.1242 8.84833 12.0987 8.91555 12.0987 8.999V9.88566C12.0523 9.93202 11.9781 9.97259 11.8761 10.0074C11.7765 10.0398 11.6629 10.0653 11.5354 10.0839C11.4102 10.1024 11.285 10.1117 11.1599 10.1117Z" fill="#90765F"></path>
<path d="M7.99596 10.1117C7.71779 10.1117 7.47324 10.056 7.26229 9.94477C7.05367 9.83118 6.89024 9.67356 6.77202 9.47189C6.65612 9.2679 6.59817 9.03029 6.59817 8.75908C6.59817 8.48787 6.65612 8.25143 6.77202 8.04976C6.89024 7.84577 7.05367 7.68814 7.26229 7.57687C7.47324 7.46329 7.71779 7.40649 7.99596 7.40649C8.27413 7.40649 8.51752 7.46329 8.72615 7.57687C8.93709 7.68814 9.10051 7.84577 9.21642 8.04976C9.33464 8.25143 9.39375 8.48787 9.39375 8.75908C9.39375 9.03029 9.33464 9.2679 9.21642 9.47189C9.10051 9.67356 8.93709 9.83118 8.72615 9.94477C8.51752 10.056 8.27413 10.1117 7.99596 10.1117ZM7.99596 10.056C8.1165 10.056 8.22661 10.0247 8.32628 9.96215C8.42596 9.89957 8.51173 9.81148 8.58359 9.6979C8.65313 9.58431 8.70644 9.44755 8.74353 9.2876C8.78294 9.12765 8.80264 8.95032 8.80264 8.7556C8.80264 8.56089 8.78294 8.38356 8.74353 8.22361C8.70644 8.06135 8.65313 7.92342 8.58359 7.80984C8.51173 7.69625 8.42596 7.60817 8.32628 7.54558C8.22661 7.48299 8.1165 7.4517 7.99596 7.4517C7.87542 7.4517 7.76531 7.48299 7.66564 7.54558C7.56596 7.60817 7.48135 7.69625 7.41181 7.80984C7.33995 7.92342 7.28431 8.06135 7.24491 8.22361C7.20782 8.38356 7.18927 8.56089 7.18927 8.7556C7.18927 8.95032 7.20782 9.12765 7.24491 9.2876C7.28431 9.44755 7.33995 9.58431 7.41181 9.6979C7.48135 9.81148 7.56596 9.89957 7.66564 9.96215C7.76531 10.0247 7.87542 10.056 7.99596 10.056Z" fill="#90765F"></path>
<path d="M4.58496 10.063V10.0282H4.58844C4.67189 10.0282 4.73911 10.0062 4.79011 9.96216C4.84111 9.91811 4.86661 9.85437 4.86661 9.77092V7.76811C4.86661 7.68466 4.84111 7.61744 4.79011 7.56644C4.73911 7.51545 4.67189 7.48995 4.58844 7.48995H4.58496V7.45518H5.69415V7.48995H5.68024C5.59679 7.48995 5.52957 7.51545 5.47857 7.56644C5.42758 7.61744 5.40208 7.68466 5.40208 7.76811V9.78483C5.40208 9.859 5.41946 9.91696 5.45423 9.95868C5.49132 9.99809 5.55507 10.0178 5.64547 10.0178H5.71849C5.9248 10.0178 6.09865 9.95404 6.24006 9.82655C6.38146 9.69906 6.4707 9.51941 6.50779 9.2876H6.54256L6.43825 10.063H4.58496Z" fill="#90765F"></path>
<path d="M17.8976 6.28926C17.8784 6.28926 17.8688 6.28222 17.8688 6.26814C17.8688 6.25662 17.8772 6.24894 17.8938 6.2451L17.938 6.23741C17.9649 6.23229 17.9821 6.22525 17.9898 6.21629C17.9988 6.20733 18.0033 6.18941 18.0033 6.16253V5.03346C18.0033 5.00658 17.9988 4.98866 17.9898 4.97969C17.9821 4.97073 17.9649 4.96369 17.938 4.95857L17.8938 4.95089C17.8772 4.94705 17.8688 4.93937 17.8688 4.92785C17.8688 4.91377 17.8784 4.90673 17.8976 4.90673H18.5428C18.5723 4.90673 18.5883 4.92145 18.5908 4.95089L18.6062 5.26964C18.6088 5.2914 18.6004 5.30229 18.5812 5.30229C18.5659 5.30229 18.5569 5.29396 18.5544 5.27732L18.5428 5.20628C18.5288 5.11923 18.4999 5.05586 18.4564 5.01618C18.4129 4.97521 18.3527 4.95473 18.2759 4.95473C18.2247 4.95473 18.1889 4.96241 18.1684 4.97777C18.1492 4.99186 18.1396 5.01746 18.1396 5.05458V5.51735C18.1396 5.53527 18.1486 5.54423 18.1665 5.54423H18.2625C18.3188 5.54423 18.3534 5.51415 18.3662 5.45398L18.3854 5.35797C18.3905 5.33877 18.4014 5.33045 18.418 5.33301C18.4321 5.33557 18.4391 5.34645 18.4391 5.36565V5.79769C18.4391 5.81689 18.4321 5.82778 18.418 5.83034C18.4014 5.8329 18.3905 5.82458 18.3854 5.80537L18.3662 5.71128C18.3572 5.66648 18.3444 5.63704 18.3278 5.62296C18.3124 5.60887 18.29 5.60183 18.2606 5.60183H18.1665C18.1486 5.60183 18.1396 5.61079 18.1396 5.62872V6.11068C18.1396 6.15677 18.1511 6.19005 18.1742 6.21053C18.1985 6.23101 18.242 6.24126 18.3047 6.24126C18.3687 6.24126 18.4231 6.22525 18.4679 6.19325C18.514 6.15997 18.546 6.09852 18.564 6.00891L18.587 5.89562C18.5908 5.87898 18.6004 5.87066 18.6158 5.87066C18.6337 5.87066 18.6414 5.88154 18.6388 5.9033L18.6196 6.2451C18.6171 6.27454 18.6011 6.28926 18.5716 6.28926H17.8976Z" fill="#90765F"></path>
<path d="M14.8716 6.28926C14.8524 6.28926 14.8428 6.28222 14.8428 6.26814C14.8428 6.25662 14.8512 6.24894 14.8678 6.2451L14.912 6.23741C14.9388 6.23229 14.9561 6.22525 14.9638 6.21629C14.9728 6.20733 14.9772 6.18941 14.9772 6.16253V5.03346C14.9772 5.00658 14.9728 4.98866 14.9638 4.97969C14.9561 4.97073 14.9388 4.96369 14.912 4.95857L14.8678 4.95089C14.8512 4.94705 14.8428 4.93937 14.8428 4.92785C14.8428 4.91377 14.8524 4.90673 14.8716 4.90673H15.223C15.2422 4.90673 15.2518 4.91441 15.2518 4.92977C15.2518 4.94129 15.2448 4.94833 15.2307 4.95089L15.1789 4.95857C15.152 4.96241 15.1341 4.96945 15.1251 4.97969C15.1174 4.98994 15.1136 5.0085 15.1136 5.03538V5.51735C15.1136 5.53527 15.1225 5.54423 15.1405 5.54423H15.5207C15.5386 5.54423 15.5475 5.53527 15.5475 5.51735V5.03538C15.5475 5.0085 15.5431 4.98994 15.5341 4.97969C15.5264 4.96945 15.5091 4.96241 15.4823 4.95857L15.4304 4.95089C15.4163 4.94833 15.4093 4.94129 15.4093 4.92977C15.4093 4.91441 15.4189 4.90673 15.4381 4.90673H15.7895C15.8087 4.90673 15.8183 4.91377 15.8183 4.92785C15.8183 4.93937 15.81 4.94705 15.7933 4.95089L15.7492 4.95857C15.7223 4.96369 15.7044 4.97073 15.6954 4.97969C15.6877 4.98866 15.6839 5.00658 15.6839 5.03346V6.16253C15.6839 6.18941 15.6877 6.20733 15.6954 6.21629C15.7044 6.22525 15.7223 6.23229 15.7492 6.23741L15.7933 6.2451C15.81 6.24894 15.8183 6.25662 15.8183 6.26814C15.8183 6.28222 15.8087 6.28926 15.7895 6.28926H15.4381C15.4189 6.28926 15.4093 6.28158 15.4093 6.26622C15.4093 6.2547 15.4163 6.24766 15.4304 6.2451L15.4823 6.23741C15.5091 6.23357 15.5264 6.22653 15.5341 6.21629C15.5431 6.20605 15.5475 6.18749 15.5475 6.16061V5.62872C15.5475 5.61079 15.5386 5.60183 15.5207 5.60183H15.1405C15.1225 5.60183 15.1136 5.61079 15.1136 5.62872V6.16061C15.1136 6.18749 15.1174 6.20605 15.1251 6.21629C15.1341 6.22653 15.152 6.23357 15.1789 6.23741L15.2307 6.2451C15.2448 6.24766 15.2518 6.2547 15.2518 6.26622C15.2518 6.28158 15.2422 6.28926 15.223 6.28926H14.8716Z" fill="#90765F"></path>
<path d="M12.1701 6.28926C12.1509 6.28926 12.1413 6.28222 12.1413 6.26814C12.1413 6.25406 12.1496 6.24638 12.1662 6.2451L12.2526 6.23166C12.2782 6.22782 12.2955 6.22142 12.3045 6.21246C12.3134 6.20222 12.3179 6.18365 12.3179 6.15677V5.00466C12.3179 4.98674 12.3141 4.97394 12.3064 4.96626C12.2987 4.95858 12.2827 4.95474 12.2584 4.95474C12.211 4.95474 12.1643 4.97522 12.1182 5.01618C12.0721 5.05715 12.042 5.12307 12.028 5.21396L12.0184 5.27733C12.0158 5.29397 12.0068 5.30229 11.9915 5.30229C11.9723 5.30229 11.964 5.29141 11.9665 5.26965L11.9838 4.92209C11.9864 4.89265 11.9979 4.87793 12.0184 4.87793C12.0273 4.87793 12.0356 4.88049 12.0433 4.88561C12.051 4.88945 12.0638 4.89393 12.0817 4.89905C12.1009 4.90417 12.131 4.90673 12.172 4.90673H12.6002C12.6411 4.90673 12.6706 4.90417 12.6885 4.89905C12.7077 4.89393 12.7211 4.88945 12.7288 4.88561C12.7378 4.88049 12.7461 4.87793 12.7538 4.87793C12.7743 4.87793 12.7858 4.89265 12.7884 4.92209L12.8056 5.26965C12.8082 5.29141 12.7999 5.30229 12.7807 5.30229C12.7653 5.30229 12.7564 5.29397 12.7538 5.27733L12.7442 5.21396C12.7314 5.12307 12.7019 5.05715 12.6559 5.01618C12.6098 4.97522 12.5624 4.95474 12.5138 4.95474C12.4894 4.95474 12.4734 4.95858 12.4658 4.96626C12.4581 4.97394 12.4542 4.98674 12.4542 5.00466V6.15677C12.4542 6.18365 12.4587 6.20222 12.4677 6.21246C12.4779 6.22142 12.4952 6.22782 12.5195 6.23166L12.6059 6.2451C12.6226 6.24638 12.6309 6.25406 12.6309 6.26814C12.6309 6.28222 12.6213 6.28926 12.6021 6.28926H12.1701Z" fill="#90765F"></path>
<path d="M25.5576 13.5373C25.5448 13.5398 25.5352 13.5386 25.5288 13.5334C25.5236 13.5283 25.5211 13.5219 25.5211 13.5142C25.5211 13.5027 25.5281 13.4938 25.5422 13.4874C25.6408 13.4502 25.7221 13.3882 25.7861 13.3011C25.8501 13.2128 25.8942 13.0931 25.9186 12.942C25.9211 12.9318 25.9198 12.9254 25.9147 12.9228C25.9096 12.9203 25.9032 12.9222 25.8955 12.9286C25.8558 12.9593 25.8072 12.9747 25.7496 12.9747C25.6894 12.9747 25.6357 12.9561 25.5883 12.919C25.5409 12.8819 25.5032 12.8319 25.475 12.7692C25.4481 12.7052 25.4347 12.6348 25.4347 12.558C25.4347 12.4799 25.4494 12.4082 25.4788 12.3429C25.5083 12.2764 25.5473 12.2226 25.596 12.1816C25.6459 12.1407 25.7009 12.1202 25.7611 12.1202C25.8264 12.1202 25.8834 12.142 25.932 12.1855C25.9806 12.229 26.0184 12.2898 26.0453 12.3679C26.0735 12.4447 26.0875 12.535 26.0875 12.6386C26.0875 12.7974 26.0632 12.9401 26.0146 13.0668C25.9672 13.1923 25.9032 13.2953 25.8226 13.376C25.7432 13.4566 25.6549 13.5104 25.5576 13.5373ZM25.5729 12.5484C25.5729 12.8006 25.6325 12.9267 25.7515 12.9267C25.8168 12.9267 25.8661 12.8927 25.8994 12.8249C25.9326 12.7571 25.9493 12.661 25.9493 12.5369C25.9493 12.4178 25.9333 12.3276 25.9013 12.2661C25.8706 12.2034 25.8232 12.172 25.7592 12.172C25.635 12.172 25.5729 12.2975 25.5729 12.5484Z" fill="#90765F"></path>
<path d="M25.0218 13.5219C25.0026 13.5219 24.993 13.5149 24.993 13.5008C24.993 13.4867 25.0013 13.479 25.018 13.4778L25.0928 13.4701C25.1197 13.4675 25.1376 13.4611 25.1466 13.4509C25.1568 13.4406 25.162 13.4221 25.162 13.3952V12.2546C25.162 12.2328 25.1556 12.2188 25.1428 12.2124C25.1312 12.2047 25.1159 12.2021 25.0967 12.2047L25.0276 12.2124C25.0045 12.2136 24.993 12.2053 24.993 12.1874C24.993 12.1733 25.0032 12.1644 25.0237 12.1605C25.0916 12.149 25.1415 12.1381 25.1735 12.1279C25.2055 12.1164 25.2292 12.1106 25.2445 12.1106C25.2714 12.1106 25.2849 12.1247 25.2849 12.1528V13.3952C25.2849 13.4221 25.2893 13.4406 25.2983 13.4509C25.3085 13.4611 25.3271 13.4675 25.354 13.4701L25.4173 13.4778C25.434 13.479 25.4423 13.4867 25.4423 13.5008C25.4423 13.5149 25.4327 13.5219 25.4135 13.5219H25.0218Z" fill="#90765F"></path>
<path d="M24.6186 13.5392C24.5444 13.5392 24.4791 13.5078 24.4228 13.4451C24.3664 13.3824 24.3229 13.2973 24.2922 13.1897C24.2615 13.0822 24.2461 12.9619 24.2461 12.8287C24.2461 12.6956 24.2615 12.5759 24.2922 12.4697C24.3229 12.3621 24.3664 12.277 24.4228 12.2143C24.4791 12.1516 24.5444 12.1202 24.6186 12.1202C24.6929 12.1202 24.7575 12.1516 24.8126 12.2143C24.8689 12.277 24.9124 12.3621 24.9431 12.4697C24.9751 12.5759 24.9911 12.6956 24.9911 12.8287C24.9911 12.9619 24.9751 13.0822 24.9431 13.1897C24.9124 13.2973 24.8689 13.3824 24.8126 13.4451C24.7575 13.5078 24.6929 13.5392 24.6186 13.5392ZM24.6186 13.4874C24.6993 13.4874 24.7582 13.433 24.7953 13.3241C24.8337 13.2153 24.8529 13.0502 24.8529 12.8287C24.8529 12.6073 24.8337 12.4428 24.7953 12.3353C24.7582 12.2264 24.6993 12.172 24.6186 12.172C24.538 12.172 24.4785 12.2264 24.44 12.3353C24.4029 12.4428 24.3844 12.6073 24.3844 12.8287C24.3844 13.0502 24.4029 13.2153 24.44 13.3241C24.4785 13.433 24.538 13.4874 24.6186 13.4874Z" fill="#90765F"></path>
<path d="M23.5504 13.5219C23.5274 13.5219 23.5159 13.5136 23.5159 13.497C23.5159 13.488 23.5203 13.4765 23.5293 13.4624L23.7597 13.111C23.8557 12.9651 23.9249 12.8396 23.9671 12.7347C24.0106 12.6284 24.0324 12.5311 24.0324 12.4428C24.0324 12.3634 24.0158 12.3026 23.9825 12.2604C23.9505 12.2181 23.9037 12.197 23.8423 12.197C23.7809 12.197 23.7252 12.2188 23.6752 12.2623C23.6253 12.3045 23.5933 12.3724 23.5792 12.4658C23.5754 12.4863 23.5658 12.4965 23.5504 12.4965C23.5312 12.4965 23.5229 12.4837 23.5255 12.4581C23.5344 12.3737 23.5562 12.3071 23.5908 12.2584C23.6266 12.2085 23.6695 12.1733 23.7194 12.1528C23.7693 12.1311 23.8199 12.1202 23.8711 12.1202C23.9594 12.1202 24.0311 12.1471 24.0862 12.2008C24.1425 12.2533 24.1707 12.3269 24.1707 12.4217C24.1707 12.4882 24.1546 12.5567 24.1226 12.6271C24.0919 12.6962 24.049 12.7724 23.994 12.8556C23.9402 12.9376 23.8781 13.0316 23.8077 13.1379L23.658 13.3645C23.6503 13.376 23.6496 13.3862 23.656 13.3952C23.6637 13.4029 23.674 13.4067 23.6868 13.4067H23.8922C23.9409 13.4067 23.9812 13.4016 24.0132 13.3914C24.0452 13.3798 24.0708 13.3594 24.09 13.3299C24.1092 13.2992 24.1239 13.2557 24.1342 13.1993L24.1514 13.1091C24.1553 13.0924 24.1649 13.0841 24.1803 13.0841C24.1982 13.0841 24.2059 13.095 24.2033 13.1168L24.1803 13.4778C24.1777 13.5072 24.1617 13.5219 24.1322 13.5219H23.5504Z" fill="#90765F"></path>
</svg>